<svg xmlns="http://www.w3.org/2000/svg" xmlns:xlink="http://www.w3.org/1999/xlink" width="500" zoomAndPan="magnify" viewBox="0 0 375 374.999991" height="500" preserveAspectRatio="xMidYMid meet" version="1.0"><defs><g/><clipPath id="0228b477a8"><path d="M 357 276 L 372.644531 276 L 372.644531 292 L 357 292 Z M 357 276 " clip-rule="nonzero"/></clipPath><clipPath id="200b097797"><path d="M 188.332031 106 L 372.832031 106 L 372.832031 292.53125 L 188.332031 292.53125 Z M 188.332031 106 " clip-rule="nonzero"/></clipPath><clipPath id="f1dab2f368"><path d="M 0 169.890625 L 372.722656 169.890625 L 372.722656 216.53125 L 0 216.53125 Z M 0 169.890625 " clip-rule="nonzero"/></clipPath></defs><path stroke-linecap="butt" transform="matrix(0.111587, -0.741652, 0.741652, 0.111587, 149.16162, 325.516678)" fill="none" stroke-linejoin="miter" d="M -0.00102948 0.998904 L 376.265369 1.001255 " stroke="#000000" stroke-width="2" stroke-opacity="1" stroke-miterlimit="4"/><g fill="#000000" fill-opacity="1"><g transform="translate(6.524659, 272.831301)"><g><path d="M 84.683594 3.355469 C 106.148438 3.355469 120.90625 0 134.320312 -4.359375 L 134.320312 -26.832031 L 132.476562 -26.832031 C 132.476562 -26.832031 121.914062 1.339844 84.683594 1.339844 C 52.320312 1.339844 25.152344 -34.878906 25.152344 -83.847656 C 25.152344 -132.8125 49.972656 -169.035156 84.683594 -169.035156 C 112.6875 -169.035156 126.273438 -157.128906 126.273438 -137.171875 C 126.273438 -112.6875 79.152344 -102.796875 79.152344 -73.28125 C 79.152344 -65.566406 84.683594 -55.671875 93.738281 -57.6875 C 90.386719 -60.535156 88.710938 -63.386719 88.710938 -68.585938 C 88.710938 -88.542969 136.164062 -100.949219 136.164062 -135.832031 C 136.164062 -151.089844 123.085938 -171.046875 84.683594 -171.046875 C 42.929688 -171.046875 10.0625 -134.152344 10.0625 -83.847656 C 10.0625 -33.539062 42.929688 3.355469 84.683594 3.355469 Z M 84.683594 3.355469 "/></g></g></g><path stroke-linecap="butt" transform="matrix(1.365459, 0, 0, 1.365459, -135.056399, 120.299018)" fill="none" stroke-linejoin="miter" d="M 165.693558 110.45806 C 181.433454 110.45806 192.227098 108.000668 202.062388 104.822365 L 202.062388 88.361557 L 200.71211 88.361557 C 200.71211 88.361557 192.976617 108.990491 165.693558 108.990491 C 142.006473 108.990491 122.09559 82.45409 122.09559 46.594475 C 122.09559 10.73486 140.295739 -15.798681 165.693558 -15.798681 C 186.230947 -15.798681 196.154921 -7.073366 196.154921 7.527949 C 196.154921 25.456326 161.645584 32.714072 161.645584 54.329967 C 161.645584 59.968523 165.693558 67.223408 172.347684 65.752978 C 169.890292 63.656042 168.660165 61.587713 168.660165 57.780043 C 168.660165 43.14726 203.409806 34.061489 203.409806 8.517771 C 203.409806 -2.636328 193.81482 -17.269111 165.693558 -17.269111 C 135.140651 -17.269111 111.064503 9.745037 111.064503 46.594475 C 111.064503 83.443912 135.140651 110.45806 165.693558 110.45806 Z M 165.693558 110.45806 " stroke="#ff5f15" stroke-width="2.149228" stroke-opacity="1" stroke-miterlimit="4"/><path fill="#ff5f15" d="M 321.894531 149.070312 C 322.863281 148.367188 323.828125 147.648438 324.800781 146.957031 C 324.429688 144.175781 323.980469 141.398438 323.464844 138.675781 C 322.28125 137.953125 321.0625 137.246094 319.816406 136.550781 C 320.675781 140.640625 321.371094 144.828125 321.894531 149.070312 Z M 321.894531 149.070312 " fill-opacity="1" fill-rule="nonzero"/><path fill="#ff5f15" d="M 256.453125 179.921875 C 254.65625 181.066406 252.90625 182.257812 251.222656 183.5 C 253.574219 182.953125 255.964844 182.441406 258.375 181.964844 Z M 256.453125 179.921875 " fill-opacity="1" fill-rule="nonzero"/><path fill="#ff5f15" d="M 241.445312 163.976562 C 228.296875 188.117188 223.242188 216.472656 226.394531 248.351562 C 227.441406 246.890625 228.492188 245.457031 229.542969 244.015625 C 226.058594 217.316406 230.945312 188.019531 242.640625 165.25 Z M 241.445312 163.976562 " fill-opacity="1" fill-rule="nonzero"/><path fill="#ff5f15" d="M 248.527344 181.796875 C 250.40625 180.375 252.355469 179.007812 254.371094 177.707031 L 251.742188 174.910156 C 250.617188 177.136719 249.546875 179.4375 248.527344 181.796875 Z M 248.527344 181.796875 " fill-opacity="1" fill-rule="nonzero"/><path fill="#ff5f15" d="M 330.285156 143.164062 C 329.183594 142.378906 328.050781 141.605469 326.886719 140.839844 C 327.128906 142.238281 327.34375 143.644531 327.546875 145.054688 C 328.460938 144.421875 329.367188 143.789062 330.285156 143.164062 Z M 330.285156 143.164062 " fill-opacity="1" fill-rule="nonzero"/><path fill="#ff5f15" d="M 237.09375 215.078125 C 237.09375 215.066406 237.097656 215.058594 237.097656 215.050781 C 237.320312 212.246094 237.660156 209.464844 238.097656 206.707031 C 238.097656 206.695312 238.101562 206.6875 238.101562 206.675781 C 239.394531 198.589844 241.589844 190.703125 244.710938 183.066406 C 246.195312 179.4375 247.820312 175.917969 249.539062 172.578125 L 244.824219 167.570312 C 234.199219 188.769531 229.546875 215.5625 232.140625 240.433594 C 233.808594 238.179688 235.492188 235.976562 237.171875 233.78125 C 236.871094 230.269531 236.730469 226.789062 236.75 223.332031 C 236.75 223.328125 236.75 223.320312 236.746094 223.316406 C 236.746094 223.300781 236.75 223.289062 236.75 223.277344 C 236.765625 220.523438 236.878906 217.792969 237.09375 215.078125 Z M 237.09375 215.078125 " fill-opacity="1" fill-rule="nonzero"/><path fill="#ff5f15" d="M 329.222656 167.90625 C 337.546875 166.300781 345.871094 165.804688 354.042969 166.445312 C 352.546875 164.421875 350.84375 162.285156 348.921875 160.074219 C 342.203125 159.757812 335.519531 159.738281 329.003906 160.007812 C 329.140625 162.625 329.207031 165.257812 329.222656 167.90625 Z M 329.222656 167.90625 " fill-opacity="1" fill-rule="nonzero"/><path fill="#ff5f15" d="M 329.210938 170.949219 C 329.1875 172.917969 329.132812 174.890625 329.046875 176.867188 C 344.867188 177.367188 356.941406 178.75 362.09375 179.429688 C 361.035156 177.285156 359.164062 173.84375 356.332031 169.671875 C 347.433594 168.707031 338.320312 169.136719 329.210938 170.949219 Z M 329.210938 170.949219 " fill-opacity="1" fill-rule="nonzero"/><path fill="#ff5f15" d="M 273.863281 113.5 C 273.898438 114.328125 273.257812 115.023438 272.433594 115.058594 C 258.621094 115.652344 247.554688 119.035156 239.339844 125.105469 C 251.074219 119.90625 272.605469 114.871094 303.238281 125.78125 C 303.714844 125.949219 304.167969 126.136719 304.636719 126.308594 C 304.695312 126.324219 304.746094 126.347656 304.800781 126.371094 C 305.542969 126.644531 306.289062 126.921875 307.015625 127.207031 C 307.042969 127.214844 307.070312 127.226562 307.097656 127.238281 C 311.042969 128.792969 314.738281 130.496094 318.21875 132.300781 C 318.320312 132.34375 318.417969 132.386719 318.511719 132.449219 C 320.902344 133.699219 323.183594 134.996094 325.367188 136.332031 C 325.515625 136.394531 325.652344 136.472656 325.773438 136.582031 C 328.523438 138.28125 331.109375 140.039062 333.53125 141.832031 C 333.71875 141.921875 333.882812 142.042969 334.027344 142.207031 C 335.992188 143.679688 337.855469 145.171875 339.613281 146.675781 C 339.84375 146.785156 340.054688 146.933594 340.207031 147.15625 C 340.21875 147.175781 340.21875 147.191406 340.230469 147.207031 C 344.164062 150.621094 347.589844 154.0625 350.527344 157.382812 C 350.765625 157.539062 350.957031 157.75 351.074219 158.011719 C 352.363281 159.488281 353.558594 160.9375 354.664062 162.347656 C 346.972656 149.648438 335.664062 138.875 320.839844 130.183594 C 320.125 129.769531 319.886719 128.851562 320.304688 128.136719 C 320.722656 127.425781 321.636719 127.1875 322.351562 127.605469 C 337.472656 136.464844 349.039062 147.457031 356.980469 160.40625 C 340.226562 125.015625 296.035156 108.558594 270.875 109.53125 C 254.984375 110.117188 242.859375 115.210938 236.105469 123.8125 C 244.929688 116.675781 257.050781 112.726562 272.304688 112.070312 C 273.121094 112.042969 273.828125 112.675781 273.863281 113.5 Z M 273.863281 113.5 " fill-opacity="1" fill-rule="nonzero"/><path fill="#ff5f15" d="M 360.597656 161.226562 C 357.738281 150.6875 351.71875 137.914062 339.101562 127.929688 C 325.199219 116.929688 310.335938 112.617188 299.4375 110.988281 C 323.121094 118.351562 349.097656 134.898438 360.597656 161.226562 Z M 360.597656 161.226562 " fill-opacity="1" fill-rule="nonzero"/><path fill="#ff5f15" d="M 278.574219 169.195312 C 275.617188 170.261719 272.734375 171.417969 269.972656 172.65625 L 276.070312 179.136719 C 278.636719 178.816406 281.242188 178.535156 283.859375 178.277344 C 281.933594 175.304688 280.167969 172.28125 278.574219 169.195312 Z M 278.574219 169.195312 " fill-opacity="1" fill-rule="nonzero"/><path fill="#ff5f15" d="M 249.269531 140.203125 C 246.566406 140.691406 243.835938 141.285156 241.101562 141.992188 L 244.558594 145.664062 C 246.089844 143.757812 247.65625 141.933594 249.269531 140.203125 Z M 249.269531 140.203125 " fill-opacity="1" fill-rule="nonzero"/><path fill="#ff5f15" d="M 273.339844 122.539062 C 271.988281 122.464844 270.664062 122.421875 269.371094 122.410156 C 265.261719 124.421875 261.082031 126.855469 256.90625 129.636719 C 258.621094 129.386719 260.359375 129.15625 262.105469 128.945312 C 265.742188 126.394531 269.496094 124.25 273.339844 122.539062 Z M 273.339844 122.539062 " fill-opacity="1" fill-rule="nonzero"/><path fill="#ff5f15" d="M 236.859375 137.484375 L 239.003906 139.761719 C 239.070312 139.699219 239.140625 139.640625 239.207031 139.582031 C 239.253906 139.542969 239.289062 139.5 239.339844 139.464844 C 242.765625 136.421875 246.261719 133.570312 249.792969 130.964844 C 249.84375 130.925781 249.886719 130.886719 249.941406 130.855469 C 254.136719 127.765625 258.371094 125.015625 262.570312 122.640625 C 259.757812 122.859375 257.132812 123.222656 254.683594 123.679688 C 248.664062 127.613281 242.675781 132.261719 236.859375 137.484375 Z M 236.859375 137.484375 " fill-opacity="1" fill-rule="nonzero"/><path fill="#ff5f15" d="M 283.566406 181.3125 C 280.917969 181.578125 278.273438 181.863281 275.683594 182.191406 C 273.617188 182.453125 271.535156 182.742188 269.449219 183.054688 C 261.378906 184.261719 253.527344 185.890625 246.066406 187.875 C 245.042969 190.675781 244.136719 193.511719 243.359375 196.378906 C 250.675781 193.992188 257.765625 192.109375 264.453125 190.835938 C 268.027344 190.15625 271.828125 189.554688 275.75 189.046875 C 278.34375 186.410156 280.949219 183.832031 283.566406 181.3125 Z M 283.566406 181.3125 " fill-opacity="1" fill-rule="nonzero"/><path fill="#ff5f15" d="M 245.882812 137.808594 C 248.222656 137.324219 250.542969 136.921875 252.835938 136.597656 C 254.308594 135.191406 255.804688 133.855469 257.328125 132.597656 C 255.289062 132.890625 253.28125 133.207031 251.316406 133.550781 C 249.492188 134.902344 247.683594 136.332031 245.882812 137.808594 Z M 245.882812 137.808594 " fill-opacity="1" fill-rule="nonzero"/><path fill="#ff5f15" d="M 338.832031 149.9375 C 335.527344 152.21875 332.25 154.585938 328.988281 157.019531 C 334.609375 156.789062 340.347656 156.777344 346.128906 156.976562 C 343.945312 154.65625 341.511719 152.292969 338.832031 149.9375 Z M 338.832031 149.9375 " fill-opacity="1" fill-rule="nonzero"/><path fill="#ff5f15" d="M 239.914062 230.203125 C 240.972656 228.84375 242.035156 227.511719 243.097656 226.167969 C 241.976562 225.875 240.863281 225.558594 239.746094 225.21875 C 239.765625 226.875 239.820312 228.539062 239.914062 230.203125 Z M 239.914062 230.203125 " fill-opacity="1" fill-rule="nonzero"/><path fill="#ff5f15" d="M 255.519531 211.101562 C 250.25 212.5625 245.058594 214.265625 240.015625 216.179688 C 239.90625 217.707031 239.824219 219.238281 239.777344 220.777344 C 243.3125 219.078125 247.148438 217.519531 251.238281 216.140625 C 252.660156 214.4375 254.089844 212.769531 255.519531 211.101562 Z M 255.519531 211.101562 " fill-opacity="1" fill-rule="nonzero"/><path fill="#ff5f15" d="M 272.332031 192.542969 C 269.816406 192.917969 267.363281 193.328125 265.015625 193.773438 C 257.90625 195.128906 250.332031 197.164062 242.5 199.800781 C 242.128906 201.371094 241.800781 202.957031 241.503906 204.546875 C 246.671875 202.777344 251.988281 201.199219 257.355469 199.878906 C 260.679688 199.054688 264.09375 198.320312 267.503906 197.664062 C 269.105469 195.9375 270.71875 194.226562 272.332031 192.542969 Z M 272.332031 192.542969 " fill-opacity="1" fill-rule="nonzero"/><path fill="#ff5f15" d="M 264.070312 201.410156 C 262.054688 201.839844 260.046875 202.292969 258.074219 202.777344 C 252.253906 204.214844 246.5 205.941406 240.9375 207.902344 C 240.683594 209.558594 240.476562 211.21875 240.304688 212.890625 C 246.367188 210.640625 252.625 208.691406 258.96875 207.097656 C 260.660156 205.167969 262.363281 203.289062 264.070312 201.410156 Z M 264.070312 201.410156 " fill-opacity="1" fill-rule="nonzero"/><path fill="#ff5f15" d="M 247.492188 220.691406 C 245.707031 221.390625 243.96875 222.113281 242.3125 222.875 C 243.25 223.140625 244.183594 223.371094 245.117188 223.601562 C 245.90625 222.621094 246.703125 221.664062 247.492188 220.691406 Z M 247.492188 220.691406 " fill-opacity="1" fill-rule="nonzero"/><path fill="#ff5f15" d="M 271.875 214.097656 C 270.34375 214.351562 268.8125 214.609375 267.289062 214.878906 C 264.222656 218.394531 261.175781 222.019531 258.136719 225.707031 C 260.984375 225.9375 263.839844 226.019531 266.707031 225.9375 C 267.847656 221.738281 269.554688 217.832031 271.875 214.097656 Z M 271.875 214.097656 " fill-opacity="1" fill-rule="nonzero"/><path fill="#ff5f15" d="M 267.925781 228.90625 C 267.902344 228.90625 267.878906 228.917969 267.855469 228.917969 C 267.835938 228.917969 267.8125 228.910156 267.789062 228.910156 C 266.675781 228.957031 265.5625 228.992188 264.457031 228.992188 C 261.574219 228.992188 258.699219 228.820312 255.828125 228.519531 C 254.429688 230.238281 253.035156 231.992188 251.640625 233.75 C 269.425781 234.296875 284.90625 231.847656 299.949219 226.125 L 296.839844 222.820312 C 286.90625 226.488281 277.34375 228.507812 267.925781 228.90625 Z M 267.925781 228.90625 " fill-opacity="1" fill-rule="nonzero"/><path fill="#ff5f15" d="M 284.695312 250.359375 C 290.738281 250.066406 296.796875 248.960938 302.714844 247.105469 C 303.417969 245.566406 304.082031 244 304.75 242.4375 C 291.628906 246.730469 277.527344 248.914062 262.582031 248.914062 C 255.960938 248.914062 249.167969 248.46875 242.234375 247.621094 C 242.53125 249.035156 242.84375 250.417969 243.171875 251.757812 C 262.363281 257.699219 280.820312 259.285156 298.066406 256.46875 C 299.066406 254.574219 300.039062 252.652344 300.976562 250.710938 C 295.660156 252.175781 290.246094 253.082031 284.839844 253.34375 C 284.8125 253.34375 284.789062 253.347656 284.765625 253.347656 C 283.972656 253.347656 283.3125 252.722656 283.273438 251.921875 C 283.234375 251.097656 283.867188 250.398438 284.695312 250.359375 Z M 284.695312 250.359375 " fill-opacity="1" fill-rule="nonzero"/><path fill="#ff5f15" d="M 293.347656 187.414062 C 301.484375 186.910156 310.132812 186.699219 319.171875 186.792969 C 319.410156 184.421875 319.605469 182.058594 319.753906 179.703125 C 313.5 179.660156 307.265625 179.765625 301.1875 180.039062 C 298.5625 182.4375 295.949219 184.898438 293.347656 187.414062 Z M 293.347656 187.414062 " fill-opacity="1" fill-rule="nonzero"/><path fill="#ff5f15" d="M 282.476562 212.480469 C 280.261719 215.746094 278.804688 218.628906 277.832031 221.726562 C 277.632812 222.367188 277.042969 222.777344 276.40625 222.777344 C 276.257812 222.777344 276.105469 222.753906 275.957031 222.707031 C 275.171875 222.460938 274.730469 221.625 274.980469 220.835938 C 275.808594 218.179688 276.945312 215.691406 278.542969 213.042969 C 277.65625 213.175781 276.773438 213.320312 275.890625 213.457031 C 273.140625 217.347656 271.144531 221.40625 269.839844 225.800781 C 277.90625 225.253906 286.109375 223.457031 294.589844 220.433594 L 286.574219 211.917969 C 285.203125 212.097656 283.839844 212.285156 282.476562 212.480469 Z M 282.476562 212.480469 " fill-opacity="1" fill-rule="nonzero"/><path fill="#ff5f15" d="M 304.613281 176.933594 C 306.125 176.882812 307.625 176.824219 309.148438 176.789062 C 308.929688 175.695312 308.699219 174.621094 308.453125 173.558594 C 307.171875 174.671875 305.890625 175.796875 304.613281 176.933594 Z M 304.613281 176.933594 " fill-opacity="1" fill-rule="nonzero"/><path fill="#ff5f15" d="M 314.113281 214.996094 C 313.144531 215.511719 312.191406 216.003906 311.234375 216.488281 L 313.152344 218.523438 C 313.476562 217.351562 313.808594 216.175781 314.113281 214.996094 Z M 314.113281 214.996094 " fill-opacity="1" fill-rule="nonzero"/><path fill="#ff5f15" d="M 315.535156 209.054688 C 312.015625 209.292969 308.503906 209.5625 305.011719 209.875 L 309.097656 214.21875 C 311.058594 213.238281 313.058594 212.1875 315.070312 211.078125 C 315.230469 210.40625 315.382812 209.730469 315.535156 209.054688 Z M 315.535156 209.054688 " fill-opacity="1" fill-rule="nonzero"/><path fill="#ff5f15" d="M 270.433594 239.238281 C 283.050781 237.832031 294.296875 235.203125 304.765625 231.238281 L 302.152344 228.464844 C 287.769531 234.105469 273.054688 236.824219 256.445312 236.824219 C 254.117188 236.824219 251.75 236.761719 249.347656 236.65625 C 247.277344 239.304688 245.214844 241.996094 243.15625 244.730469 C 266.066406 247.453125 287.28125 245.460938 306.261719 238.785156 C 306.824219 237.394531 307.378906 235.996094 307.914062 234.582031 L 306.984375 233.597656 C 295.949219 237.898438 284.097656 240.726562 270.765625 242.207031 C 270.707031 242.214844 270.652344 242.21875 270.597656 242.21875 C 269.847656 242.21875 269.195312 241.652344 269.113281 240.886719 C 269.023438 240.066406 269.613281 239.328125 270.433594 239.238281 Z M 270.433594 239.238281 " fill-opacity="1" fill-rule="nonzero"/><path fill="#ff5f15" d="M 316.546875 204.328125 C 301.882812 203.84375 287.707031 204.71875 274.367188 206.941406 C 273.058594 208.375 271.761719 209.839844 270.460938 211.304688 C 271.886719 211.0625 273.320312 210.832031 274.757812 210.605469 C 274.789062 210.597656 274.820312 210.59375 274.855469 210.589844 C 276.992188 210.253906 279.136719 209.933594 281.292969 209.625 C 281.332031 209.617188 281.371094 209.613281 281.414062 209.609375 C 292.816406 207.988281 304.46875 206.78125 316.234375 206.007812 C 316.347656 205.449219 316.433594 204.886719 316.546875 204.328125 Z M 316.546875 204.328125 " fill-opacity="1" fill-rule="nonzero"/><path fill="#ff5f15" d="M 323.722656 214.121094 C 327.738281 211.597656 331.820312 208.78125 335.925781 205.707031 C 332.488281 205.335938 329.09375 205.03125 325.746094 204.796875 C 325.148438 207.910156 324.472656 211.023438 323.722656 214.121094 Z M 323.722656 214.121094 " fill-opacity="1" fill-rule="nonzero"/><path fill="#ff5f15" d="M 321.175781 223.605469 C 329.03125 219.222656 336.8125 213.800781 345.234375 206.867188 C 343.558594 206.628906 341.894531 206.410156 340.234375 206.203125 C 334.316406 210.773438 328.414062 214.835938 322.667969 218.289062 C 322.199219 220.066406 321.695312 221.839844 321.175781 223.605469 Z M 321.175781 223.605469 " fill-opacity="1" fill-rule="nonzero"/><path fill="#ff5f15" d="M 362.929688 220.027344 C 363.710938 216.777344 364.292969 213.515625 364.6875 210.25 C 363.648438 210.039062 362.613281 209.828125 361.578125 209.628906 C 361.949219 214.527344 361.195312 220.105469 359.339844 226.242188 C 359.144531 226.886719 358.550781 227.304688 357.90625 227.304688 C 357.765625 227.304688 357.621094 227.285156 357.472656 227.242188 C 356.683594 227 356.234375 226.167969 356.476562 225.375 C 358.332031 219.242188 359.003906 213.761719 358.507812 209.046875 C 357.808594 208.917969 357.109375 208.785156 356.410156 208.660156 C 356.667969 214.339844 355.617188 221.484375 353.253906 229.949219 C 353.070312 230.613281 352.46875 231.046875 351.816406 231.046875 C 351.683594 231.046875 351.546875 231.027344 351.414062 230.988281 C 350.617188 230.769531 350.152344 229.941406 350.375 229.148438 C 352.390625 221.902344 353.410156 215.730469 353.449219 210.6875 C 352.644531 211.601562 351.820312 212.496094 350.988281 213.382812 C 349.855469 223.285156 347.609375 232.453125 344.289062 240.628906 C 344.050781 241.210938 343.492188 241.5625 342.902344 241.5625 C 342.714844 241.5625 342.523438 241.527344 342.339844 241.453125 C 341.574219 241.140625 341.207031 240.269531 341.515625 239.503906 C 344.300781 232.648438 346.304688 225.0625 347.507812 216.90625 C 345.867188 218.488281 344.191406 220.027344 342.460938 221.503906 C 340.832031 229.179688 338.609375 236.28125 335.863281 242.652344 L 346.1875 253.621094 C 354.277344 243.804688 359.925781 232.519531 362.929688 220.027344 Z M 362.929688 220.027344 " fill-opacity="1" fill-rule="nonzero"/><path fill="#ff5f15" d="M 325.964844 159.277344 C 324.953125 160.050781 323.949219 160.839844 322.941406 161.625 C 323.082031 164.722656 323.105469 167.855469 323.070312 171.007812 C 323.09375 171.179688 323.09375 171.351562 323.0625 171.515625 C 323.027344 173.683594 322.964844 175.855469 322.851562 178.042969 C 322.855469 178.101562 322.882812 178.15625 322.882812 178.21875 C 322.882812 178.324219 322.84375 178.414062 322.820312 178.511719 C 322.644531 181.714844 322.382812 184.925781 322.035156 188.148438 C 322.042969 188.207031 322.066406 188.257812 322.066406 188.316406 C 322.066406 188.457031 322.019531 188.582031 321.980469 188.710938 C 321.730469 190.972656 321.433594 193.234375 321.101562 195.5 C 321.101562 195.550781 321.125 195.597656 321.125 195.652344 C 321.117188 195.828125 321.066406 195.988281 321.003906 196.140625 C 320.667969 198.375 320.289062 200.609375 319.871094 202.839844 C 319.871094 202.878906 319.886719 202.910156 319.886719 202.945312 C 319.878906 203.15625 319.824219 203.359375 319.742188 203.539062 C 319.472656 204.933594 319.210938 206.324219 318.917969 207.714844 C 318.898438 207.800781 318.890625 207.886719 318.859375 207.96875 C 318.550781 209.390625 318.21875 210.808594 317.878906 212.222656 C 317.863281 212.347656 317.84375 212.46875 317.796875 212.585938 C 317.109375 215.429688 316.371094 218.265625 315.554688 221.078125 L 318.027344 223.699219 C 324.414062 202.363281 327.144531 180.207031 325.964844 159.277344 Z M 325.964844 159.277344 " fill-opacity="1" fill-rule="nonzero"/><path fill="#ff5f15" d="M 351.914062 207.890625 C 351.011719 207.742188 350.105469 207.597656 349.207031 207.457031 C 339.304688 215.800781 330.320312 222.0625 321.152344 227.023438 L 324.433594 230.511719 C 334.851562 224.566406 344.074219 216.96875 351.914062 207.890625 Z M 351.914062 207.890625 " fill-opacity="1" fill-rule="nonzero"/><path fill="#ff5f15" d="M 338.675781 224.578125 C 334.832031 227.5625 330.78125 230.285156 326.535156 232.742188 L 333.613281 240.261719 C 335.613281 235.429688 337.3125 230.183594 338.675781 224.578125 Z M 338.675781 224.578125 " fill-opacity="1" fill-rule="nonzero"/><path fill="#ff5f15" d="M 313.195312 169.519531 C 312.464844 170.132812 311.734375 170.726562 311.007812 171.347656 C 311.433594 173.09375 311.828125 174.898438 312.1875 176.734375 C 313.058594 176.722656 313.933594 176.730469 314.804688 176.726562 C 314.339844 174.253906 313.800781 171.84375 313.195312 169.519531 Z M 313.195312 169.519531 " fill-opacity="1" fill-rule="nonzero"/><path fill="#ff5f15" d="M 320.007812 163.941406 C 318.578125 165.082031 317.144531 166.238281 315.71875 167.414062 C 316.058594 168.632812 316.375 169.871094 316.675781 171.136719 C 317.820312 170.769531 318.960938 170.421875 320.09375 170.09375 C 320.105469 168.03125 320.074219 165.980469 320.007812 163.941406 Z M 320.007812 163.941406 " fill-opacity="1" fill-rule="nonzero"/><path fill="#ff5f15" d="M 319.933594 176.707031 C 319.988281 175.542969 320.007812 174.386719 320.035156 173.226562 C 319.136719 173.496094 318.234375 173.777344 317.328125 174.070312 C 317.511719 174.945312 317.679688 175.828125 317.84375 176.714844 C 318.542969 176.714844 319.238281 176.703125 319.933594 176.707031 Z M 319.933594 176.707031 " fill-opacity="1" fill-rule="nonzero"/><path fill="#ff5f15" d="M 285.671875 195.027344 C 296.152344 193.96875 307.09375 193.648438 318.285156 194.050781 C 318.488281 192.625 318.691406 191.203125 318.859375 189.78125 C 308.703125 189.683594 299.015625 189.957031 290.050781 190.613281 C 288.585938 192.0625 287.128906 193.542969 285.671875 195.027344 Z M 285.671875 195.027344 " fill-opacity="1" fill-rule="nonzero"/><path fill="#ff5f15" d="M 277.648438 203.410156 C 290.214844 201.570312 303.457031 200.878906 317.105469 201.351562 C 317.367188 199.910156 317.621094 198.472656 317.851562 197.027344 C 305.617188 196.601562 293.691406 197.054688 282.363281 198.394531 C 280.789062 200.039062 279.21875 201.722656 277.648438 203.410156 Z M 277.648438 203.410156 " fill-opacity="1" fill-rule="nonzero"/><path fill="#ff5f15" d="M 328.335938 186.976562 C 344.671875 187.5 356.332031 188.796875 356.453125 188.808594 C 357.273438 188.902344 357.863281 189.644531 357.773438 190.460938 C 357.683594 191.226562 357.039062 191.789062 356.285156 191.789062 C 356.230469 191.789062 356.175781 191.789062 356.117188 191.78125 C 356 191.769531 344.339844 190.472656 328.007812 189.960938 C 327.835938 191.488281 327.640625 193.015625 327.429688 194.542969 C 331.339844 194.820312 335.320312 195.167969 339.308594 195.613281 C 340.128906 195.703125 340.71875 196.441406 340.628906 197.261719 C 340.542969 198.027344 339.898438 198.59375 339.144531 198.59375 C 339.089844 198.59375 339.035156 198.589844 338.976562 198.582031 C 334.957031 198.136719 330.941406 197.785156 327 197.507812 C 326.777344 198.953125 326.539062 200.394531 326.285156 201.839844 C 333.613281 202.359375 341.160156 203.210938 348.867188 204.382812 C 348.90625 204.386719 348.941406 204.394531 348.980469 204.398438 C 352.6875 204.964844 356.433594 205.601562 360.207031 206.3125 C 360.226562 206.320312 360.25 206.320312 360.269531 206.328125 C 361.832031 206.621094 363.398438 206.933594 364.96875 207.253906 C 365.660156 199.019531 365.125 190.777344 363.339844 182.617188 C 359.71875 182.105469 346.714844 180.414062 328.890625 179.855469 C 328.746094 182.226562 328.570312 184.597656 328.335938 186.976562 Z M 328.335938 186.976562 " fill-opacity="1" fill-rule="nonzero"/><path fill="#ff5f15" d="M 228.308594 265.269531 C 230.964844 267.445312 233.753906 269.46875 236.65625 271.304688 C 235.0625 267.5 233.710938 263.445312 232.566406 259.214844 C 231.144531 261.21875 229.726562 263.226562 228.308594 265.269531 Z M 228.308594 265.269531 " fill-opacity="1" fill-rule="nonzero"/><path fill="#ff5f15" d="M 310.179688 236.992188 C 309.730469 238.167969 309.277344 239.339844 308.804688 240.5 C 308.785156 240.554688 308.769531 240.605469 308.742188 240.65625 C 306.234375 246.808594 303.429688 252.765625 300.363281 258.527344 C 300.324219 258.59375 300.304688 258.664062 300.257812 258.722656 C 298.359375 262.28125 296.363281 265.765625 294.253906 269.160156 C 294.226562 269.210938 294.195312 269.257812 294.164062 269.304688 C 290.671875 274.921875 286.921875 280.324219 282.878906 285.46875 C 282.601562 285.824219 282.46875 286.273438 282.511719 286.722656 C 282.554688 287.164062 282.757812 287.554688 283.082031 287.824219 C 283.261719 287.976562 283.457031 288.074219 283.679688 288.125 C 284.253906 288.257812 284.875 288.035156 285.261719 287.546875 C 296.464844 273.289062 305.636719 257.128906 312.558594 239.511719 Z M 310.179688 236.992188 " fill-opacity="1" fill-rule="nonzero"/><path fill="#ff5f15" d="M 234.816406 256.042969 C 236.441406 262.671875 238.621094 268.839844 241.320312 274.367188 C 242.726562 277.078125 245.9375 281.664062 248.503906 282.28125 C 250.019531 282.644531 250.730469 281.648438 251.042969 280.925781 C 249.492188 278.183594 243.292969 266.539062 239.570312 249.53125 C 237.980469 251.679688 236.398438 253.84375 234.816406 256.042969 Z M 234.816406 256.042969 " fill-opacity="1" fill-rule="nonzero"/><path fill="#ff5f15" d="M 262.722656 273.101562 C 262.433594 273.101562 262.148438 273.101562 261.859375 273.101562 C 261.035156 273.097656 260.367188 272.425781 260.371094 271.597656 C 260.375 270.777344 261.042969 270.109375 261.867188 270.109375 C 262.113281 270.128906 262.4375 270.113281 262.722656 270.113281 C 273.070312 270.113281 282.910156 269.097656 292.011719 267.109375 C 293.5 264.695312 294.945312 262.246094 296.328125 259.75 C 291.351562 260.453125 286.285156 260.824219 281.136719 260.824219 C 269.171875 260.824219 256.761719 258.910156 244.046875 255.136719 C 247.707031 268.441406 252.539062 277.484375 253.6875 279.519531 C 256.335938 280.445312 259.066406 281.261719 261.816406 281.925781 C 267.835938 283.371094 273.996094 284.132812 280.132812 284.234375 C 280.25 284.023438 280.375 283.816406 280.527344 283.621094 C 283.796875 279.457031 286.867188 275.113281 289.777344 270.628906 C 281.28125 272.269531 272.203125 273.101562 262.722656 273.101562 Z M 262.722656 273.101562 " fill-opacity="1" fill-rule="nonzero"/><path fill="#ff5f15" d="M 223.769531 252.066406 C 219.789062 217.800781 225.011719 187.40625 239.28125 161.679688 L 238.089844 160.414062 C 235.382812 165.039062 232.921875 169.941406 230.789062 175.054688 C 224.414062 190.332031 220.53125 207.769531 219.417969 224.539062 C 219.421875 224.570312 219.410156 224.601562 219.410156 224.632812 C 218.683594 235.695312 219.171875 246.445312 220.960938 256.09375 C 221.894531 254.742188 222.832031 253.398438 223.769531 252.066406 Z M 223.769531 252.066406 " fill-opacity="1" fill-rule="nonzero"/><path fill="#ff5f15" d="M 239.09375 245.101562 C 239.144531 245.015625 239.21875 244.953125 239.285156 244.882812 C 262.972656 213.175781 287.367188 187.019531 313.050781 165.746094 C 313.074219 165.722656 313.09375 165.703125 313.121094 165.6875 C 317.53125 162.035156 321.984375 158.527344 326.476562 155.164062 C 326.527344 155.128906 326.566406 155.085938 326.617188 155.054688 C 329.886719 152.609375 333.171875 150.226562 336.484375 147.929688 C 335.316406 146.960938 334.089844 146 332.828125 145.042969 C 321.027344 153.015625 309.5625 161.898438 298.382812 171.726562 C 298.378906 171.730469 298.375 171.738281 298.371094 171.742188 C 298.367188 171.742188 298.363281 171.742188 298.359375 171.746094 C 295.1875 174.535156 292.035156 177.386719 288.910156 180.328125 C 288.863281 180.386719 288.804688 180.425781 288.75 180.476562 C 282.257812 186.597656 275.855469 193.058594 269.539062 199.863281 C 269.523438 199.886719 269.5 199.902344 269.484375 199.921875 C 266.679688 202.945312 263.886719 206.027344 261.113281 209.1875 C 261.109375 209.191406 261.101562 209.199219 261.097656 209.207031 C 247.53125 224.664062 234.335938 241.78125 221.40625 260.679688 C 221.234375 260.945312 219.667969 263.46875 221.605469 264.96875 C 223.222656 266.21875 224.746094 264.957031 225.128906 264.589844 C 229.738281 257.914062 234.375 251.460938 239.035156 245.214844 C 239.054688 245.175781 239.070312 245.136719 239.09375 245.101562 Z M 239.09375 245.101562 " fill-opacity="1" fill-rule="nonzero"/><path fill="#ff5f15" d="M 204.820312 234.425781 C 206.25 237.640625 207.859375 240.757812 209.664062 243.75 C 209.085938 240.035156 208.761719 236.070312 208.691406 231.894531 C 207.386719 232.722656 206.097656 233.5625 204.820312 234.425781 Z M 204.820312 234.425781 " fill-opacity="1" fill-rule="nonzero"/><path fill="#ff5f15" d="M 216.941406 218.417969 C 211.523438 221.289062 206.183594 224.457031 201.054688 227.894531 C 201.003906 227.925781 197.972656 229.9375 199.007812 231.816406 C 199.382812 232.492188 199.800781 232.878906 200.296875 233.007812 C 201.015625 233.191406 201.855469 232.796875 202.117188 232.628906 C 206.753906 229.464844 211.589844 226.496094 216.472656 223.800781 C 216.597656 222.011719 216.753906 220.21875 216.941406 218.417969 Z M 216.941406 218.417969 " fill-opacity="1" fill-rule="nonzero"/><path fill="#ff5f15" d="M 204.925781 204.871094 C 204.890625 204.890625 204.867188 204.914062 204.832031 204.929688 C 199.957031 207.953125 197.53125 210.03125 197.484375 210.070312 C 197.382812 210.152344 194.03125 212.804688 195.023438 215.445312 C 195.59375 216.976562 196.859375 217.007812 197.453125 216.929688 C 198.925781 216.058594 207.082031 211.320312 218.699219 206.027344 C 219.261719 202.890625 219.933594 199.769531 220.675781 196.675781 C 213.925781 199.648438 208.699219 202.535156 204.925781 204.871094 Z M 204.925781 204.871094 " fill-opacity="1" fill-rule="nonzero"/><path fill="#ff5f15" d="M 198.703125 219.652344 C 198.691406 219.660156 198.683594 219.671875 198.671875 219.679688 C 198.640625 219.695312 195.398438 221.417969 196.183594 223.632812 C 196.515625 224.578125 196.988281 225.183594 197.582031 225.421875 C 198.363281 225.742188 199.28125 225.421875 199.507812 225.332031 C 205.25 221.488281 211.261719 217.957031 217.371094 214.8125 C 217.589844 213.070312 217.835938 211.328125 218.113281 209.589844 C 206.492188 214.988281 198.839844 219.582031 198.757812 219.632812 C 198.742188 219.640625 198.722656 219.644531 198.703125 219.652344 Z M 198.703125 219.652344 " fill-opacity="1" fill-rule="nonzero"/><path fill="#ff5f15" d="M 216.277344 227.34375 C 214.734375 228.21875 213.195312 229.113281 211.667969 230.039062 C 211.664062 237.601562 212.492188 244.449219 214.136719 250.410156 C 215.265625 251.929688 216.457031 253.410156 217.691406 254.855469 C 216.269531 246.300781 215.820312 236.957031 216.277344 227.34375 Z M 216.277344 227.34375 " fill-opacity="1" fill-rule="nonzero"/><g clip-path="url(#0228b477a8)"><path fill="#ff5f15" d="M 371.15625 284.503906 L 363.550781 276.425781 C 362.167969 278.824219 359.988281 280.820312 357.015625 282.378906 L 364.71875 290.5625 C 366.390625 292.335938 369.195312 292.421875 370.96875 290.75 C 371.828125 289.941406 372.320312 288.847656 372.355469 287.664062 C 372.390625 286.484375 371.964844 285.367188 371.15625 284.503906 Z M 371.15625 284.503906 " fill-opacity="1" fill-rule="nonzero"/></g><path fill="#ff5f15" d="M 353.503906 265.753906 L 351.75 263.890625 C 350.203125 266.550781 348.078125 268.613281 345.40625 270.046875 L 347.027344 271.765625 C 350 270.570312 352.128906 268.589844 353.503906 265.753906 Z M 353.503906 265.753906 " fill-opacity="1" fill-rule="nonzero"/><path fill="#ff5f15" d="M 349.59375 261.601562 L 317.652344 227.667969 C 317.648438 227.667969 317.648438 227.664062 317.644531 227.664062 L 313.125 222.863281 C 312.859375 222.707031 312.644531 222.492188 312.519531 222.21875 L 307.675781 217.074219 C 307.675781 217.074219 307.671875 217.070312 307.671875 217.070312 L 301.242188 210.242188 C 297.558594 210.605469 293.890625 211.007812 290.246094 211.453125 L 298.335938 220.046875 C 298.335938 220.046875 298.335938 220.050781 298.339844 220.050781 L 308.449219 230.792969 L 343.265625 267.773438 C 346.082031 266.46875 348.164062 264.4375 349.59375 261.601562 Z M 349.59375 261.601562 " fill-opacity="1" fill-rule="nonzero"/><path fill="#ff5f15" d="M 357.648438 270.15625 L 355.667969 268.050781 C 354.148438 270.707031 351.980469 272.726562 349.195312 274.074219 L 351.128906 276.125 C 354.128906 274.71875 356.277344 272.753906 357.648438 270.15625 Z M 357.648438 270.15625 " fill-opacity="1" fill-rule="nonzero"/><path fill="#ff5f15" d="M 361.386719 274.128906 L 359.785156 272.429688 C 358.257812 274.914062 356.082031 276.914062 353.265625 278.398438 L 354.867188 280.097656 C 358.109375 278.574219 360.253906 276.609375 361.386719 274.128906 Z M 361.386719 274.128906 " fill-opacity="1" fill-rule="nonzero"/><path fill="#ff5f15" d="M 195.371094 202.289062 C 197.191406 197.25 199.449219 192.15625 202.070312 187.078125 C 202.070312 187.074219 202.074219 187.070312 202.074219 187.070312 C 208.699219 174.234375 217.730469 161.527344 228.40625 150.125 L 226.265625 147.851562 C 214.929688 159.953125 205.402344 173.472656 198.566406 187.0625 C 198.5625 187.070312 198.558594 187.074219 198.558594 187.082031 C 196.183594 191.800781 194.132812 196.527344 192.445312 201.203125 C 192.136719 202.0625 192.558594 203.007812 193.386719 203.316406 L 193.597656 203.375 C 194.289062 203.539062 195.085938 203.082031 195.371094 202.289062 Z M 195.371094 202.289062 " fill-opacity="1" fill-rule="nonzero"/><path fill="#ff5f15" d="M 312.792969 260.953125 C 317.269531 258.75 322.101562 255.992188 325.890625 253.675781 L 324.140625 251.816406 C 321.570312 252.945312 318.957031 253.984375 316.339844 254.902344 C 315.28125 256.972656 314.097656 258.992188 312.792969 260.953125 Z M 312.792969 260.953125 " fill-opacity="1" fill-rule="nonzero"/><path fill="#ff5f15" d="M 324.164062 269.695312 C 323.878906 269.957031 323.515625 270.085938 323.15625 270.085938 C 322.75 270.085938 322.347656 269.921875 322.050781 269.597656 C 321.496094 268.988281 321.539062 268.042969 322.148438 267.484375 C 325.171875 264.730469 327.957031 261.722656 330.472656 258.546875 L 328.4375 256.386719 C 321.09375 267.335938 311.527344 275.789062 298.839844 282.425781 C 312.382812 279.519531 325.195312 273.226562 335.800781 264.207031 L 332.542969 260.746094 C 330 263.921875 327.199219 266.929688 324.164062 269.695312 Z M 324.164062 269.695312 " fill-opacity="1" fill-rule="nonzero"/><path fill="#ff5f15" d="M 318.140625 251.042969 C 319.421875 250.550781 320.6875 250.039062 321.953125 249.5 L 319.675781 247.078125 C 319.214844 248.421875 318.695312 249.738281 318.140625 251.042969 Z M 318.140625 251.042969 " fill-opacity="1" fill-rule="nonzero"/><path fill="#ff5f15" d="M 300.425781 270.820312 C 308.578125 263.230469 314.246094 254.441406 317.335938 244.589844 L 314.808594 241.90625 C 310.742188 252.054688 305.9375 261.722656 300.425781 270.820312 Z M 300.425781 270.820312 " fill-opacity="1" fill-rule="nonzero"/><path fill="#ff5f15" d="M 322.941406 258.894531 C 318.410156 261.5 313.3125 264.1875 309.144531 265.898438 C 305.265625 270.667969 300.59375 275.066406 295.140625 279.058594 C 294.496094 280.003906 293.839844 280.9375 293.183594 281.871094 C 305.800781 275.988281 315.460938 268.539062 322.941406 258.894531 Z M 322.941406 258.894531 " fill-opacity="1" fill-rule="nonzero"/><path fill="#ff5f15" d="M 277.238281 166.5 C 276.410156 164.773438 275.632812 163.023438 274.902344 161.253906 C 271.1875 162.75 267.539062 164.449219 264.011719 166.324219 L 267.808594 170.355469 C 270.824219 168.972656 273.984375 167.679688 277.238281 166.5 Z M 277.238281 166.5 " fill-opacity="1" fill-rule="nonzero"/><path fill="#ff5f15" d="M 287.835938 124.503906 C 285.140625 123.929688 282.539062 123.484375 280.023438 123.15625 C 267.847656 127.125 256.335938 135.648438 246.632812 147.863281 L 250.785156 152.277344 C 263.75 135.25 279.722656 127.53125 287.835938 124.503906 Z M 287.835938 124.503906 " fill-opacity="1" fill-rule="nonzero"/><path fill="#ff5f15" d="M 304.589844 162.503906 C 301.316406 163.054688 298.109375 163.699219 294.988281 164.414062 C 295.859375 165.777344 296.761719 167.09375 297.699219 168.359375 C 299.984375 166.367188 302.28125 164.414062 304.589844 162.503906 Z M 304.589844 162.503906 " fill-opacity="1" fill-rule="nonzero"/><path fill="#ff5f15" d="M 273.796875 158.476562 C 272.558594 155.210938 271.488281 151.859375 270.566406 148.417969 C 266.859375 152.078125 263.140625 156.445312 259.570312 161.609375 L 261.886719 164.066406 C 265.730469 161.984375 269.722656 160.113281 273.796875 158.476562 Z M 273.796875 158.476562 " fill-opacity="1" fill-rule="nonzero"/><path fill="#ff5f15" d="M 295.429688 170.324219 C 294.003906 168.40625 292.640625 166.40625 291.355469 164.277344 C 291.335938 164.25 291.320312 164.214844 291.300781 164.183594 C 289.769531 161.636719 288.339844 158.929688 287.003906 156.054688 C 286.921875 155.925781 286.851562 155.789062 286.8125 155.632812 C 286.808594 155.628906 286.8125 155.625 286.8125 155.621094 C 284.597656 150.8125 282.652344 145.523438 280.941406 139.738281 C 280.164062 140.285156 279.375 140.855469 278.582031 141.457031 C 281.839844 154.144531 286.367188 164.519531 292.367188 173.089844 C 293.386719 172.164062 294.40625 171.230469 295.429688 170.324219 Z M 295.429688 170.324219 " fill-opacity="1" fill-rule="nonzero"/><path fill="#ff5f15" d="M 290.140625 175.121094 C 284.027344 166.488281 279.394531 156.09375 276.027344 143.480469 C 275.039062 144.300781 274.042969 145.167969 273.039062 146.078125 C 275.9375 157.578125 280.566406 167.996094 287.15625 177.859375 C 288.148438 176.933594 289.148438 176.035156 290.140625 175.121094 Z M 290.140625 175.121094 " fill-opacity="1" fill-rule="nonzero"/><path fill="#ff5f15" d="M 310.820312 149.933594 C 309.984375 142.214844 308.191406 135.457031 305.480469 129.820312 C 305.019531 129.644531 304.550781 129.46875 304.085938 129.296875 C 303.113281 129.464844 300.316406 130.035156 296.367188 131.511719 C 301.511719 137.449219 305.667969 143.554688 309.015625 150.097656 C 309.617188 150.039062 310.21875 149.984375 310.820312 149.933594 Z M 310.820312 149.933594 " fill-opacity="1" fill-rule="nonzero"/><path fill="#ff5f15" d="M 298.851562 127.460938 C 297 126.863281 295.175781 126.316406 293.390625 125.835938 C 290.332031 126.679688 268.863281 133.230469 252.863281 154.484375 L 257.472656 159.382812 C 272.746094 137.578125 290.28125 129.988281 298.851562 127.460938 Z M 298.851562 127.460938 " fill-opacity="1" fill-rule="nonzero"/><path fill="#ff5f15" d="M 283.542969 137.992188 C 285.171875 143.648438 287.035156 148.796875 289.140625 153.496094 C 290.191406 153.230469 291.25 152.972656 292.320312 152.734375 C 292.089844 147.367188 290.714844 141.628906 288.140625 135.277344 C 286.664062 136.078125 285.128906 136.976562 283.542969 137.992188 Z M 283.542969 137.992188 " fill-opacity="1" fill-rule="nonzero"/><path fill="#ff5f15" d="M 305.828125 150.445312 C 302.535156 144.21875 298.457031 138.386719 293.433594 132.699219 C 292.785156 132.980469 292.113281 133.285156 291.425781 133.613281 C 296.15625 138.585938 300.203125 144.332031 303.484375 150.730469 C 304.257812 150.625 305.042969 150.539062 305.828125 150.445312 Z M 305.828125 150.445312 " fill-opacity="1" fill-rule="nonzero"/><path fill="#ff5f15" d="M 300.355469 151.199219 C 298.214844 147.15625 295.753906 143.398438 292.992188 139.953125 C 294.3125 144.21875 295.074219 148.242188 295.289062 152.101562 C 296.957031 151.769531 298.648438 151.472656 300.355469 151.199219 Z M 300.355469 151.199219 " fill-opacity="1" fill-rule="nonzero"/><path fill="#ff5f15" d="M 204.367188 139.980469 C 204.847656 140.074219 205.328125 139.941406 205.691406 139.617188 C 206.175781 139.1875 206.339844 138.5 206.105469 137.90625 C 204.3125 133.417969 205.5 131.207031 206.8125 130.144531 C 209.773438 127.746094 213.773438 130.324219 215.664062 132.230469 L 227.03125 144.304688 C 227.035156 144.308594 227.035156 144.308594 227.039062 144.3125 L 231.402344 148.949219 C 231.4375 148.976562 231.476562 148.984375 231.507812 149.011719 C 231.558594 149.0625 231.585938 149.128906 231.628906 149.1875 L 238.882812 156.894531 C 238.886719 156.898438 238.886719 156.898438 238.890625 156.902344 L 261.851562 181.292969 C 264.21875 180.863281 266.597656 180.457031 269.003906 180.097656 C 270.148438 179.925781 271.28125 179.78125 272.417969 179.625 L 222.417969 126.507812 C 222.3125 126.394531 212.105469 115.664062 205.089844 120.734375 C 198 125.863281 200.933594 134.5 203.316406 139.195312 C 203.601562 139.757812 204.097656 139.929688 204.367188 139.980469 Z M 204.367188 139.980469 " fill-opacity="1" fill-rule="nonzero"/><path fill="#ff5f15" d="M 228.027344 173.902344 C 228.074219 173.789062 228.128906 173.675781 228.175781 173.5625 C 223.929688 178.988281 220.226562 186.269531 217.363281 194.886719 C 218.714844 194.269531 220.121094 193.644531 221.605469 193.019531 C 223.355469 186.425781 225.488281 179.988281 228.027344 173.902344 Z M 228.027344 173.902344 " fill-opacity="1" fill-rule="nonzero"/><path fill="#ff5f15" d="M 234.300781 160.976562 C 227.164062 164.066406 220.355469 168.050781 214.011719 172.863281 C 212.464844 175.144531 210.980469 177.445312 209.582031 179.761719 C 211.226562 178.359375 212.941406 177.003906 214.714844 175.691406 C 214.792969 175.609375 214.886719 175.554688 214.980469 175.492188 C 220.160156 171.671875 225.855469 168.230469 232.042969 165.210938 C 232.773438 163.773438 233.527344 162.363281 234.300781 160.976562 Z M 234.300781 160.976562 " fill-opacity="1" fill-rule="nonzero"/><path fill="#ff5f15" d="M 221.023438 142.285156 C 219.25 144.128906 217.558594 146.046875 215.964844 148.035156 C 218.457031 146.867188 220.933594 145.785156 223.378906 144.785156 Z M 221.023438 142.285156 " fill-opacity="1" fill-rule="nonzero"/><path fill="#ff5f15" d="M 230.460938 152.308594 C 226.46875 156.574219 222.71875 161.023438 219.242188 165.597656 C 224.34375 162.355469 229.6875 159.597656 235.210938 157.355469 Z M 230.460938 152.308594 " fill-opacity="1" fill-rule="nonzero"/><path fill="#ff5f15" d="M 225.546875 172.078125 C 222.566406 173.835938 219.738281 175.710938 217.042969 177.679688 C 214.640625 183.890625 212.777344 190.640625 211.441406 197.761719 C 212.160156 197.390625 212.898438 197.015625 213.667969 196.636719 C 216.675781 186.730469 220.761719 178.324219 225.546875 172.078125 Z M 225.546875 172.078125 " fill-opacity="1" fill-rule="nonzero"/><path fill="#ff5f15" d="M 317.195312 152.519531 C 307.804688 152.929688 298.828125 154.1875 290.425781 156.257812 C 291.351562 158.160156 292.324219 159.976562 293.339844 161.722656 C 298.40625 160.527344 303.710938 159.53125 309.136719 158.769531 C 311.804688 156.636719 314.492188 154.554688 317.195312 152.519531 Z M 317.195312 152.519531 " fill-opacity="1" fill-rule="nonzero"/><path fill="#ff5f15" d="M 208.058594 199.558594 C 209.152344 193.089844 210.683594 186.914062 212.628906 181.117188 C 209.808594 183.445312 207.15625 185.886719 204.714844 188.464844 C 202.160156 193.417969 199.957031 198.390625 198.183594 203.304688 C 198.054688 203.664062 197.875 203.988281 197.675781 204.292969 C 197.703125 204.871094 197.757812 205.453125 197.796875 206.03125 C 198.992188 205.152344 200.675781 203.984375 202.878906 202.605469 C 203.085938 200.339844 203.390625 198.027344 203.824219 195.703125 C 203.976562 194.890625 204.753906 194.351562 205.570312 194.507812 C 206.382812 194.660156 206.917969 195.441406 206.765625 196.253906 C 206.488281 197.734375 206.273438 199.207031 206.089844 200.667969 C 206.71875 200.308594 207.375 199.9375 208.058594 199.558594 Z M 208.058594 199.558594 " fill-opacity="1" fill-rule="nonzero"/><path fill="#ff5f15" d="M 246.542969 125.726562 C 239.1875 128.070312 234.34375 131.046875 232.207031 132.542969 L 234.808594 135.304688 C 238.65625 131.84375 242.578125 128.652344 246.542969 125.726562 Z M 246.542969 125.726562 " fill-opacity="1" fill-rule="nonzero"/><path fill="#ff5f15" d="M 316.351562 134.703125 C 314.148438 133.574219 311.855469 132.488281 309.464844 131.457031 C 311.617188 136.777344 313.074219 142.894531 313.804688 149.710938 C 315.5 149.601562 317.207031 149.519531 318.925781 149.464844 C 318.308594 144.4375 317.449219 139.488281 316.351562 134.703125 Z M 316.351562 134.703125 " fill-opacity="1" fill-rule="nonzero"/><path fill="#ff5f15" d="M 201.230469 176.027344 C 206.816406 166.664062 213.570312 157.496094 221.210938 148.945312 C 218.210938 150.25 215.179688 151.675781 212.136719 153.222656 C 207.386719 160.203125 203.703125 167.882812 201.230469 176.027344 Z M 201.230469 176.027344 " fill-opacity="1" fill-rule="nonzero"/><g clip-path="url(#200b097797)"><path fill="#000000" d="M 370.78125 279.929688 L 358.136719 266.496094 C 358.132812 266.496094 358.132812 266.496094 358.132812 266.492188 L 350.15625 258.019531 L 345.996094 253.597656 C 354.402344 243.476562 360.265625 231.820312 363.371094 218.90625 C 364.265625 215.183594 364.882812 211.445312 365.28125 207.707031 C 365.285156 207.695312 365.292969 207.683594 365.296875 207.671875 C 365.304688 207.625 365.292969 207.582031 365.296875 207.539062 C 366.261719 198.273438 365.726562 188.992188 363.632812 179.8125 C 363.761719 177 364.613281 145.300781 338.777344 124.855469 C 312.078125 103.734375 282.816406 106.578125 281.40625 106.726562 C 277.101562 106.136719 273.046875 105.902344 269.390625 106.035156 C 248.957031 106.789062 233.902344 115.238281 228.496094 128.777344 L 223.757812 123.746094 C 223.273438 123.226562 211.78125 111.132812 202.742188 117.667969 C 196.324219 122.3125 195.351562 130.324219 200.082031 139.652344 C 200.707031 140.878906 201.84375 141.734375 203.203125 141.992188 C 204.578125 142.253906 205.976562 141.875 207.027344 140.945312 C 208.4375 139.695312 208.917969 137.6875 208.222656 135.945312 C 207.910156 135.160156 206.96875 132.527344 208.039062 131.664062 C 209.386719 130.570312 212.160156 132.84375 212.800781 133.484375 L 218.195312 139.210938 C 214.925781 142.59375 211.949219 146.226562 209.292969 150.078125 C 209.265625 150.109375 209.25 150.140625 209.226562 150.175781 C 203.304688 158.789062 198.96875 168.464844 196.492188 178.757812 C 196.042969 180.621094 195.65625 182.519531 195.332031 184.410156 C 192.953125 189.152344 190.890625 193.902344 189.195312 198.609375 C 188.34375 200.976562 189.542969 203.605469 191.964844 204.5 L 192.34375 204.613281 C 192.6875 204.695312 193.035156 204.734375 193.378906 204.734375 C 193.699219 204.734375 194.011719 204.6875 194.320312 204.621094 C 194.367188 205.292969 194.402344 205.960938 194.460938 206.632812 C 193.152344 207.855469 190.367188 211.019531 191.753906 214.726562 C 192.273438 216.105469 193.105469 216.960938 194.015625 217.472656 C 192.882812 218.835938 192.136719 220.660156 192.882812 222.769531 C 193.507812 224.535156 194.535156 225.71875 195.933594 226.289062 C 195.992188 226.3125 196.050781 226.316406 196.109375 226.339844 C 195.257812 227.753906 194.875 229.492188 195.875 231.300781 C 196.851562 233.066406 198.140625 233.703125 199.046875 233.925781 C 199.421875 234.015625 199.789062 234.054688 200.136719 234.054688 C 200.671875 234.054688 201.160156 233.960938 201.589844 233.835938 C 205.554688 242.695312 210.925781 250.746094 217.582031 257.796875 C 216.6875 259.773438 216.242188 262.855469 218.988281 264.980469 C 220.078125 265.824219 221.179688 266.140625 222.203125 266.140625 C 223.445312 266.140625 224.5625 265.671875 225.417969 265.113281 C 229.300781 268.3125 233.472656 271.183594 237.851562 273.648438 C 238.796875 275.386719 242.441406 281.609375 246.699219 282.632812 C 247.160156 282.742188 247.609375 282.796875 248.042969 282.796875 C 249.511719 282.796875 250.804688 282.171875 251.765625 280.964844 C 252.003906 280.667969 252.191406 280.367188 252.347656 280.078125 C 254.808594 280.910156 257.320312 281.664062 259.855469 282.273438 C 265.855469 283.714844 271.984375 284.484375 278.097656 284.621094 C 278.257812 285.761719 278.804688 286.785156 279.679688 287.507812 C 280.203125 287.945312 280.804688 288.246094 281.46875 288.40625 C 281.804688 288.484375 282.148438 288.527344 282.488281 288.527344 C 283.847656 288.527344 285.171875 287.894531 286.046875 286.78125 C 286.6875 285.964844 287.296875 285.121094 287.925781 284.292969 C 305.40625 282.65625 322.292969 275.488281 335.707031 264.039062 L 360.113281 289.96875 C 361.554688 291.496094 363.5 292.269531 365.449219 292.269531 C 367.25 292.269531 369.054688 291.609375 370.46875 290.28125 C 371.890625 288.9375 372.710938 287.121094 372.769531 285.167969 C 372.828125 283.214844 372.121094 281.355469 370.78125 279.929688 Z M 350.945312 275.917969 C 353.726562 274.453125 355.878906 272.472656 357.390625 270.015625 L 358.972656 271.699219 C 357.851562 274.148438 355.730469 276.09375 352.53125 277.601562 Z M 346.921875 271.644531 C 349.675781 270.308594 351.816406 268.316406 353.316406 265.691406 L 355.277344 267.773438 C 353.921875 270.339844 351.796875 272.28125 348.832031 273.667969 Z M 343.175781 267.664062 C 345.816406 266.246094 347.914062 264.207031 349.445312 261.578125 L 351.179688 263.417969 C 349.820312 266.222656 347.714844 268.179688 344.777344 269.367188 Z M 306.648438 228.859375 L 296.652344 218.242188 C 296.652344 218.242188 296.648438 218.238281 296.648438 218.238281 L 288.652344 209.742188 C 292.253906 209.300781 295.882812 208.902344 299.523438 208.546875 L 305.878906 215.296875 C 305.878906 215.296875 305.882812 215.300781 305.882812 215.300781 L 310.667969 220.386719 C 310.796875 220.65625 311.003906 220.871094 311.269531 221.023438 L 315.738281 225.769531 C 315.738281 225.769531 315.742188 225.773438 315.742188 225.773438 L 347.316406 259.316406 C 345.90625 262.121094 343.847656 264.128906 341.066406 265.417969 Z M 315.425781 242.5 C 312.375 252.234375 306.769531 260.925781 298.710938 268.429688 C 304.160156 259.433594 308.910156 249.878906 312.929688 239.847656 Z M 314.445312 252.691406 C 317.03125 251.789062 319.613281 250.757812 322.152344 249.644531 L 323.882812 251.480469 C 320.140625 253.769531 315.363281 256.492188 310.9375 258.671875 C 312.226562 256.734375 313.394531 254.742188 314.445312 252.691406 Z M 316.226562 248.875 C 316.773438 247.589844 317.285156 246.285156 317.742188 244.960938 L 319.992188 247.351562 C 318.742188 247.882812 317.488281 248.390625 316.226562 248.875 Z M 293.488281 276.574219 C 298.878906 272.625 303.496094 268.277344 307.332031 263.5625 C 311.453125 261.867188 316.488281 259.214844 320.96875 256.640625 C 313.574219 266.171875 304.027344 273.535156 291.550781 279.351562 C 292.203125 278.429688 292.851562 277.507812 293.488281 276.574219 Z M 300.972656 244.984375 C 295.125 246.816406 289.136719 247.910156 283.164062 248.199219 C 282.347656 248.238281 281.71875 248.933594 281.757812 249.746094 C 281.796875 250.539062 282.449219 251.15625 283.230469 251.15625 C 283.257812 251.15625 283.28125 251.15625 283.304688 251.152344 C 288.652344 250.894531 293.996094 249.996094 299.257812 248.550781 C 298.328125 250.472656 297.371094 252.367188 296.382812 254.242188 C 279.332031 257.023438 261.085938 255.460938 242.117188 249.585938 C 241.792969 248.257812 241.484375 246.894531 241.191406 245.496094 C 248.042969 246.335938 254.757812 246.773438 261.300781 246.773438 C 276.078125 246.773438 290.019531 244.617188 302.988281 240.371094 C 302.328125 241.917969 301.671875 243.464844 300.972656 244.984375 Z M 304.484375 236.761719 C 285.722656 243.359375 264.75 245.328125 242.105469 242.636719 C 244.140625 239.9375 246.179688 237.273438 248.222656 234.65625 C 250.601562 234.761719 252.941406 234.820312 255.242188 234.820312 C 271.660156 234.820312 286.207031 232.132812 300.421875 226.558594 L 303.003906 229.300781 C 292.660156 233.21875 281.539062 235.820312 269.070312 237.207031 C 268.257812 237.296875 267.675781 238.027344 267.765625 238.839844 C 267.847656 239.597656 268.488281 240.15625 269.230469 240.15625 C 269.285156 240.15625 269.339844 240.152344 269.394531 240.148438 C 282.574219 238.683594 294.292969 235.886719 305.199219 231.632812 L 306.117188 232.609375 C 305.589844 234.003906 305.039062 235.386719 304.484375 236.761719 Z M 311.335938 168.289062 C 311.933594 170.585938 312.464844 172.972656 312.925781 175.414062 C 312.066406 175.417969 311.199219 175.40625 310.339844 175.417969 C 309.984375 173.605469 309.597656 171.824219 309.171875 170.097656 C 309.890625 169.480469 310.613281 168.894531 311.335938 168.289062 Z M 343.890625 155.890625 C 338.175781 155.691406 332.5 155.707031 326.949219 155.929688 C 330.171875 153.53125 333.410156 151.183594 336.675781 148.929688 C 339.324219 151.257812 341.730469 153.597656 343.890625 155.890625 Z M 357.867188 204.675781 C 357.84375 204.667969 357.824219 204.667969 357.800781 204.664062 C 354.074219 203.957031 350.371094 203.328125 346.707031 202.769531 C 346.667969 202.761719 346.632812 202.753906 346.59375 202.753906 C 338.980469 201.59375 331.519531 200.753906 324.273438 200.238281 C 324.523438 198.8125 324.757812 197.386719 324.976562 195.960938 C 328.875 196.230469 332.84375 196.578125 336.820312 197.019531 C 336.875 197.027344 336.929688 197.03125 336.984375 197.03125 C 337.726562 197.03125 338.371094 196.472656 338.453125 195.714844 C 338.542969 194.902344 337.957031 194.171875 337.148438 194.082031 C 333.203125 193.644531 329.273438 193.296875 325.40625 193.027344 C 325.613281 191.515625 325.804688 190.007812 325.976562 188.496094 C 342.117188 189.003906 353.644531 190.285156 353.761719 190.296875 C 353.820312 190.304688 353.875 190.304688 353.929688 190.304688 C 354.671875 190.304688 355.3125 189.75 355.398438 188.992188 C 355.488281 188.179688 354.90625 187.453125 354.09375 187.359375 C 353.976562 187.347656 342.449219 186.066406 326.300781 185.546875 C 326.53125 183.195312 326.707031 180.851562 326.847656 178.507812 C 344.464844 179.0625 357.320312 180.730469 360.898438 181.238281 C 362.660156 189.304688 363.191406 197.453125 362.507812 205.589844 C 360.957031 205.273438 359.410156 204.964844 357.867188 204.675781 Z M 322.441406 228.578125 L 319.199219 225.132812 C 328.265625 220.226562 337.144531 214.039062 346.929688 205.792969 C 347.820312 205.929688 348.714844 206.074219 349.605469 206.222656 C 341.859375 215.191406 332.742188 222.707031 322.441406 228.578125 Z M 324.523438 230.785156 C 328.71875 228.355469 332.722656 225.664062 336.523438 222.714844 C 335.175781 228.257812 333.496094 233.441406 331.515625 238.21875 Z M 353.976562 168.4375 C 356.777344 172.566406 358.625 175.964844 359.671875 178.082031 C 354.578125 177.414062 342.644531 176.046875 327.003906 175.554688 C 327.089844 173.597656 327.144531 171.648438 327.167969 169.703125 C 336.171875 167.914062 345.179688 167.484375 353.976562 168.4375 Z M 323.742188 203.164062 C 327.050781 203.394531 330.40625 203.691406 333.804688 204.0625 C 329.746094 207.101562 325.710938 209.882812 321.742188 212.378906 C 322.480469 209.316406 323.152344 206.242188 323.742188 203.164062 Z M 320.699219 216.503906 C 326.378906 213.085938 332.214844 209.070312 338.0625 204.554688 C 339.703125 204.757812 341.347656 204.972656 343.003906 205.207031 C 334.683594 212.066406 326.992188 217.425781 319.222656 221.753906 C 319.738281 220.007812 320.234375 218.257812 320.699219 216.503906 Z M 327.175781 166.691406 C 327.160156 164.074219 327.09375 161.472656 326.964844 158.886719 C 333.402344 158.621094 340.011719 158.640625 346.652344 158.953125 C 348.550781 161.136719 350.234375 163.25 351.710938 165.25 C 343.636719 164.617188 335.40625 165.109375 327.175781 166.691406 Z M 323.957031 158.167969 C 325.125 178.855469 322.425781 200.753906 316.105469 221.847656 L 313.664062 219.253906 C 314.46875 216.472656 315.199219 213.671875 315.878906 210.863281 C 315.925781 210.746094 315.945312 210.628906 315.960938 210.503906 C 316.296875 209.101562 316.625 207.703125 316.929688 206.296875 C 316.960938 206.21875 316.96875 206.132812 316.988281 206.046875 C 317.28125 204.671875 317.539062 203.296875 317.800781 201.917969 C 317.886719 201.738281 317.9375 201.539062 317.945312 201.332031 C 317.949219 201.296875 317.929688 201.265625 317.929688 201.230469 C 318.34375 199.019531 318.71875 196.8125 319.050781 194.605469 C 319.113281 194.453125 319.160156 194.292969 319.167969 194.121094 C 319.171875 194.070312 319.148438 194.019531 319.144531 193.96875 C 319.472656 191.730469 319.765625 189.496094 320.015625 187.257812 C 320.050781 187.132812 320.101562 187.007812 320.101562 186.867188 C 320.101562 186.8125 320.078125 186.761719 320.070312 186.707031 C 320.414062 183.519531 320.671875 180.34375 320.847656 177.179688 C 320.867188 177.082031 320.90625 176.992188 320.910156 176.886719 C 320.910156 176.824219 320.882812 176.773438 320.875 176.714844 C 320.988281 174.554688 321.050781 172.402344 321.082031 170.261719 C 321.117188 170.097656 321.117188 169.933594 321.09375 169.761719 C 321.128906 166.644531 321.101562 163.546875 320.964844 160.484375 C 321.964844 159.707031 322.957031 158.929688 323.957031 158.167969 Z M 309.398438 214.71875 C 310.339844 214.242188 311.285156 213.753906 312.242188 213.246094 C 311.941406 214.410156 311.613281 215.570312 311.289062 216.730469 Z M 315.929688 175.402344 C 315.769531 174.523438 315.601562 173.652344 315.417969 172.789062 C 316.316406 172.496094 317.207031 172.21875 318.097656 171.953125 C 318.070312 173.101562 318.046875 174.246094 317.996094 175.394531 C 317.304688 175.390625 316.621094 175.402344 315.929688 175.402344 Z M 313.191406 209.371094 C 311.203125 210.46875 309.226562 211.503906 307.285156 212.476562 L 303.246094 208.183594 C 306.699219 207.871094 310.171875 207.605469 313.648438 207.371094 C 313.5 208.039062 313.347656 208.707031 313.191406 209.371094 Z M 318.070312 162.773438 C 318.132812 164.792969 318.167969 166.816406 318.15625 168.855469 C 317.035156 169.179688 315.910156 169.523438 314.777344 169.890625 C 314.480469 168.636719 314.164062 167.410156 313.832031 166.207031 C 315.242188 165.046875 316.65625 163.902344 318.070312 162.773438 Z M 306.648438 172.28125 C 306.890625 173.332031 307.117188 174.398438 307.335938 175.476562 C 305.832031 175.511719 304.34375 175.566406 302.851562 175.621094 C 304.117188 174.496094 305.382812 173.382812 306.648438 172.28125 Z M 299.464844 178.6875 C 305.472656 178.417969 311.636719 178.3125 317.816406 178.355469 C 317.671875 180.683594 317.480469 183.019531 317.242188 185.363281 C 308.308594 185.273438 299.757812 185.480469 291.714844 185.976562 C 294.289062 183.492188 296.871094 181.058594 299.464844 178.6875 Z M 288.457031 189.140625 C 297.316406 188.492188 306.894531 188.21875 316.933594 188.320312 C 316.765625 189.726562 316.566406 191.132812 316.367188 192.539062 C 305.304688 192.140625 294.488281 192.457031 284.128906 193.503906 C 285.570312 192.039062 287.011719 190.574219 288.457031 189.140625 Z M 280.859375 196.835938 C 292.058594 195.511719 303.84375 195.0625 315.941406 195.484375 C 315.714844 196.910156 315.460938 198.332031 315.199219 199.757812 C 301.710938 199.289062 288.621094 199.972656 276.199219 201.789062 C 277.75 200.125 279.300781 198.457031 280.859375 196.835938 Z M 272.953125 205.28125 C 286.140625 203.085938 300.152344 202.21875 314.648438 202.699219 C 314.539062 203.25 314.449219 203.808594 314.335938 204.359375 C 302.707031 205.121094 291.1875 206.316406 279.917969 207.917969 C 279.875 207.921875 279.839844 207.925781 279.796875 207.933594 C 277.667969 208.238281 275.546875 208.554688 273.433594 208.886719 C 273.402344 208.894531 273.371094 208.898438 273.335938 208.902344 C 271.914062 209.125 270.5 209.355469 269.089844 209.59375 C 270.378906 208.148438 271.660156 206.699219 272.953125 205.28125 Z M 277.082031 211.3125 C 275.503906 213.929688 274.382812 216.386719 273.558594 219.011719 C 273.3125 219.792969 273.75 220.621094 274.527344 220.867188 C 274.675781 220.910156 274.824219 220.933594 274.96875 220.933594 C 275.597656 220.933594 276.183594 220.527344 276.378906 219.894531 C 277.339844 216.835938 278.78125 213.984375 280.96875 210.753906 C 282.316406 210.5625 283.664062 210.375 285.019531 210.195312 L 292.945312 218.613281 C 284.5625 221.605469 276.457031 223.378906 268.480469 223.917969 C 269.765625 219.574219 271.742188 215.5625 274.460938 211.71875 C 275.332031 211.582031 276.207031 211.441406 277.082031 211.3125 Z M 265.960938 213.128906 C 267.464844 212.859375 268.976562 212.605469 270.492188 212.355469 C 268.195312 216.046875 266.507812 219.910156 265.382812 224.058594 C 262.546875 224.140625 259.726562 224.058594 256.910156 223.832031 C 259.914062 220.1875 262.929688 216.605469 265.960938 213.128906 Z M 254.628906 226.609375 C 257.464844 226.910156 260.304688 227.082031 263.15625 227.082031 C 264.253906 227.082031 265.351562 227.042969 266.453125 227 C 266.472656 227 266.496094 227.007812 266.519531 227.007812 C 266.542969 227.007812 266.5625 226.996094 266.585938 226.996094 C 275.898438 226.601562 285.347656 224.605469 295.164062 220.976562 L 298.238281 224.242188 C 283.371094 229.902344 268.070312 232.324219 250.488281 231.78125 C 251.867188 230.042969 253.246094 228.3125 254.628906 226.609375 Z M 343.949219 251.425781 L 333.742188 240.585938 C 336.460938 234.285156 338.65625 227.265625 340.265625 219.675781 C 341.976562 218.21875 343.636719 216.699219 345.253906 215.132812 C 344.066406 223.195312 342.085938 230.695312 339.332031 237.472656 C 339.027344 238.226562 339.390625 239.089844 340.148438 239.398438 C 340.328125 239.472656 340.519531 239.507812 340.703125 239.507812 C 341.285156 239.507812 341.839844 239.15625 342.074219 238.585938 C 345.355469 230.5 347.578125 221.4375 348.695312 211.648438 C 349.519531 210.773438 350.332031 209.890625 351.128906 208.984375 C 351.089844 213.96875 350.085938 220.074219 348.089844 227.234375 C 347.871094 228.019531 348.328125 228.835938 349.117188 229.054688 C 349.25 229.089844 349.382812 229.109375 349.511719 229.109375 C 350.160156 229.109375 350.753906 228.679688 350.9375 228.027344 C 353.269531 219.65625 354.3125 212.597656 354.054688 206.980469 C 354.746094 207.105469 355.4375 207.234375 356.128906 207.363281 C 356.617188 212.023438 355.953125 217.441406 354.121094 223.503906 C 353.886719 224.285156 354.328125 225.113281 355.109375 225.347656 C 355.25 225.390625 355.394531 225.410156 355.535156 225.410156 C 356.171875 225.410156 356.757812 225 356.949219 224.359375 C 358.789062 218.292969 359.527344 212.78125 359.164062 207.9375 C 360.1875 208.136719 361.210938 208.34375 362.238281 208.554688 C 361.847656 211.78125 361.273438 215.003906 360.5 218.21875 C 357.527344 230.566406 351.945312 241.722656 343.949219 251.425781 Z M 336.941406 127.175781 C 349.414062 137.046875 355.363281 149.671875 358.191406 160.089844 C 346.820312 134.066406 321.148438 117.707031 297.734375 110.429688 C 308.507812 112.039062 323.203125 116.304688 336.941406 127.175781 Z M 269.5 108.988281 C 294.371094 108.027344 338.054688 124.292969 354.617188 159.28125 C 346.769531 146.480469 335.332031 135.617188 320.386719 126.855469 C 319.679688 126.445312 318.777344 126.679688 318.363281 127.382812 C 317.949219 128.089844 318.1875 128.992188 318.890625 129.40625 C 333.542969 137.996094 344.722656 148.648438 352.324219 161.203125 C 351.234375 159.808594 350.054688 158.375 348.777344 156.914062 C 348.660156 156.65625 348.472656 156.445312 348.238281 156.292969 C 345.335938 153.011719 341.945312 149.609375 338.058594 146.234375 C 338.046875 146.21875 338.046875 146.203125 338.035156 146.183594 C 337.882812 145.964844 337.675781 145.820312 337.449219 145.710938 C 335.710938 144.222656 333.871094 142.746094 331.925781 141.292969 C 331.785156 141.128906 331.625 141.007812 331.4375 140.921875 C 329.042969 139.148438 326.488281 137.410156 323.769531 135.730469 C 323.648438 135.625 323.515625 135.546875 323.367188 135.484375 C 321.210938 134.164062 318.953125 132.878906 316.589844 131.644531 C 316.5 131.582031 316.402344 131.539062 316.300781 131.5 C 312.859375 129.714844 309.207031 128.03125 305.308594 126.492188 C 305.28125 126.484375 305.253906 126.472656 305.226562 126.460938 C 304.507812 126.179688 303.773438 125.910156 303.039062 125.636719 C 302.984375 125.617188 302.933594 125.589844 302.875 125.574219 C 302.414062 125.402344 301.964844 125.222656 301.496094 125.054688 C 271.214844 114.269531 249.929688 119.246094 238.332031 124.386719 C 246.449219 118.382812 257.390625 115.042969 271.042969 114.453125 C 271.859375 114.417969 272.492188 113.730469 272.457031 112.914062 C 272.421875 112.097656 271.722656 111.472656 270.917969 111.5 C 255.835938 112.148438 243.855469 116.050781 235.128906 123.109375 C 241.808594 114.601562 253.796875 109.570312 269.5 108.988281 Z M 296.015625 167.140625 C 295.09375 165.890625 294.199219 164.589844 293.339844 163.242188 C 296.425781 162.53125 299.59375 161.898438 302.832031 161.355469 C 300.546875 163.242188 298.277344 165.175781 296.015625 167.140625 Z M 213.417969 248.25 C 211.792969 242.359375 210.976562 235.589844 210.976562 228.117188 C 212.488281 227.199219 214.007812 226.3125 215.535156 225.449219 C 215.085938 234.953125 215.527344 244.191406 216.933594 252.648438 C 215.710938 251.21875 214.535156 249.753906 213.417969 248.25 Z M 208.03125 229.953125 C 208.105469 234.078125 208.425781 237.996094 208.996094 241.667969 C 207.210938 238.714844 205.621094 235.632812 204.207031 232.449219 C 205.46875 231.601562 206.746094 230.769531 208.03125 229.953125 Z M 204.953125 192.992188 C 204.144531 192.835938 203.378906 193.371094 203.226562 194.171875 C 202.796875 196.472656 202.496094 198.757812 202.289062 200.996094 C 200.113281 202.355469 198.445312 203.515625 197.265625 204.382812 C 197.230469 203.808594 197.171875 203.238281 197.148438 202.664062 C 197.34375 202.363281 197.523438 202.039062 197.652344 201.6875 C 199.40625 196.828125 201.582031 191.914062 204.105469 187.015625 C 206.519531 184.46875 209.144531 182.054688 211.929688 179.753906 C 210.007812 185.484375 208.492188 191.589844 207.410156 197.984375 C 206.738281 198.355469 206.089844 198.722656 205.46875 199.082031 C 205.648438 197.636719 205.863281 196.179688 206.136719 194.714844 C 206.285156 193.914062 205.753906 193.140625 204.953125 192.992188 Z M 234.25 156.265625 C 228.789062 158.480469 223.507812 161.207031 218.464844 164.410156 C 221.898438 159.890625 225.609375 155.492188 229.550781 151.273438 Z M 213.292969 171.59375 C 219.5625 166.835938 226.292969 162.898438 233.347656 159.84375 C 232.582031 161.214844 231.839844 162.609375 231.121094 164.023438 C 225.003906 167.011719 219.375 170.414062 214.25 174.1875 C 214.160156 174.25 214.066406 174.304688 213.988281 174.386719 C 212.238281 175.683594 210.542969 177.023438 208.917969 178.410156 C 210.300781 176.125 211.765625 173.851562 213.292969 171.59375 Z M 216.289062 176.355469 C 218.953125 174.410156 221.75 172.554688 224.695312 170.820312 C 219.96875 176.992188 215.925781 185.304688 212.957031 195.09375 C 212.195312 195.46875 211.464844 195.839844 210.753906 196.207031 C 212.074219 189.167969 213.917969 182.496094 216.289062 176.355469 Z M 227.296875 172.285156 C 227.25 172.398438 227.195312 172.507812 227.148438 172.621094 C 224.636719 178.640625 222.53125 185 220.800781 191.519531 C 219.335938 192.140625 217.945312 192.753906 216.605469 193.367188 C 219.4375 184.847656 223.101562 177.652344 227.296875 172.285156 Z M 220.164062 253.867188 C 218.398438 244.328125 217.914062 233.703125 218.632812 222.769531 C 218.628906 222.738281 218.640625 222.707031 218.636719 222.675781 C 219.738281 206.101562 223.574219 188.859375 229.878906 173.761719 C 231.988281 168.707031 234.421875 163.855469 237.09375 159.285156 L 238.273438 160.539062 C 224.167969 185.96875 219.003906 216.015625 222.941406 249.886719 C 222.011719 251.207031 221.085938 252.535156 220.164062 253.867188 Z M 225.535156 246.214844 C 222.417969 214.703125 227.414062 186.671875 240.410156 162.808594 L 241.59375 164.066406 C 230.03125 186.574219 225.203125 215.539062 228.644531 241.929688 C 227.609375 243.355469 226.566406 244.769531 225.535156 246.214844 Z M 231.214844 238.390625 C 228.648438 213.804688 233.25 187.316406 243.753906 166.363281 L 248.414062 171.3125 C 246.714844 174.617188 245.105469 178.09375 243.640625 181.679688 C 240.554688 189.230469 238.382812 197.027344 237.109375 205.019531 C 237.109375 205.03125 237.105469 205.039062 237.105469 205.050781 C 236.667969 207.777344 236.335938 210.527344 236.113281 213.296875 C 236.113281 213.304688 236.113281 213.316406 236.113281 213.324219 C 235.898438 216.003906 235.789062 218.710938 235.769531 221.429688 C 235.769531 221.445312 235.765625 221.457031 235.769531 221.46875 C 235.769531 221.472656 235.769531 221.480469 235.769531 221.484375 C 235.753906 224.898438 235.890625 228.34375 236.1875 231.8125 C 234.527344 233.988281 232.863281 236.160156 231.214844 238.390625 Z M 257.148438 180.589844 C 254.761719 181.0625 252.402344 181.566406 250.078125 182.109375 C 251.742188 180.878906 253.472656 179.703125 255.246094 178.570312 Z M 247.414062 180.425781 C 248.417969 178.09375 249.476562 175.820312 250.585938 173.617188 L 253.1875 176.382812 C 251.195312 177.671875 249.265625 179.019531 247.414062 180.425781 Z M 238.898438 228.277344 C 238.804688 226.628906 238.75 224.988281 238.730469 223.351562 C 239.835938 223.6875 240.9375 224 242.042969 224.289062 C 240.992188 225.613281 239.945312 226.933594 238.898438 228.277344 Z M 244.042969 221.753906 C 243.121094 221.523438 242.199219 221.296875 241.269531 221.035156 C 242.910156 220.277344 244.625 219.5625 246.390625 218.875 C 245.609375 219.835938 244.824219 220.78125 244.042969 221.753906 Z M 250.09375 214.375 C 246.046875 215.738281 242.257812 217.277344 238.765625 218.957031 C 238.808594 217.4375 238.890625 215.925781 239 214.414062 C 243.984375 212.519531 249.113281 210.839844 254.324219 209.394531 C 252.910156 211.042969 251.496094 212.691406 250.09375 214.375 Z M 257.730469 205.433594 C 251.460938 207.007812 245.277344 208.9375 239.285156 211.160156 C 239.453125 209.507812 239.660156 207.867188 239.90625 206.230469 C 245.40625 204.292969 251.097656 202.585938 256.847656 201.164062 C 258.796875 200.683594 260.78125 200.238281 262.773438 199.8125 C 261.089844 201.671875 259.402344 203.527344 257.730469 205.433594 Z M 266.167969 196.109375 C 262.796875 196.753906 259.425781 197.484375 256.140625 198.296875 C 250.832031 199.605469 245.578125 201.164062 240.472656 202.914062 C 240.761719 201.339844 241.089844 199.777344 241.453125 198.21875 C 249.195312 195.613281 256.683594 193.601562 263.710938 192.265625 C 266.03125 191.824219 268.457031 191.417969 270.945312 191.046875 C 269.347656 192.714844 267.753906 194.402344 266.167969 196.109375 Z M 274.324219 187.589844 C 270.445312 188.09375 266.691406 188.6875 263.15625 189.359375 C 256.546875 190.617188 249.535156 192.476562 242.304688 194.835938 C 243.074219 192.003906 243.96875 189.203125 244.984375 186.429688 C 252.355469 184.46875 260.121094 182.863281 268.09375 181.667969 C 270.15625 181.359375 272.214844 181.074219 274.257812 180.816406 C 276.820312 180.488281 279.429688 180.207031 282.050781 179.945312 C 279.460938 182.4375 276.882812 184.988281 274.324219 187.589844 Z M 245.449219 125 C 241.53125 127.890625 237.65625 131.046875 233.851562 134.46875 L 231.28125 131.738281 C 233.390625 130.257812 238.179688 127.316406 245.449219 125 Z M 253.5 122.976562 C 255.917969 122.523438 258.515625 122.164062 261.292969 121.945312 C 257.140625 124.296875 252.957031 127.015625 248.808594 130.070312 C 248.757812 130.101562 248.710938 130.136719 248.664062 130.175781 C 245.171875 132.753906 241.71875 135.570312 238.332031 138.578125 C 238.285156 138.613281 238.246094 138.65625 238.199219 138.695312 C 238.132812 138.753906 238.066406 138.8125 238 138.871094 L 235.878906 136.621094 C 241.628906 131.457031 247.542969 126.863281 253.5 122.976562 Z M 251.671875 135.746094 C 249.40625 136.0625 247.109375 136.464844 244.800781 136.945312 C 246.578125 135.484375 248.367188 134.070312 250.167969 132.734375 C 252.113281 132.394531 254.097656 132.082031 256.113281 131.789062 C 254.605469 133.035156 253.125 134.355469 251.671875 135.746094 Z M 260.835938 128.179688 C 259.105469 128.390625 257.390625 128.617188 255.695312 128.863281 C 259.824219 126.117188 263.957031 123.707031 268.015625 121.722656 C 269.292969 121.730469 270.601562 121.777344 271.9375 121.847656 C 268.140625 123.539062 264.425781 125.65625 260.835938 128.179688 Z M 248.144531 139.308594 C 246.550781 141.019531 245.003906 142.824219 243.492188 144.710938 L 240.074219 141.078125 C 242.777344 140.378906 245.472656 139.789062 248.144531 139.308594 Z M 278.546875 122.460938 C 281.03125 122.78125 283.601562 123.222656 286.265625 123.792969 C 278.246094 126.785156 262.457031 134.414062 249.644531 151.246094 L 245.539062 146.882812 C 255.128906 134.808594 266.507812 126.382812 278.546875 122.460938 Z M 291.757812 125.105469 C 293.523438 125.582031 295.324219 126.121094 297.160156 126.714844 C 288.683594 129.210938 271.347656 136.710938 256.257812 158.269531 L 251.699219 153.425781 C 267.515625 132.417969 288.738281 125.941406 291.757812 125.105469 Z M 314.457031 133.871094 C 315.539062 138.601562 316.390625 143.496094 317.003906 148.464844 C 315.300781 148.519531 313.613281 148.601562 311.941406 148.707031 C 311.214844 141.96875 309.777344 135.921875 307.648438 130.660156 C 310.011719 131.683594 312.277344 132.753906 314.457031 133.871094 Z M 308.988281 148.925781 C 308.394531 148.976562 307.796875 149.03125 307.207031 149.089844 C 303.894531 142.625 299.789062 136.585938 294.703125 130.71875 C 298.605469 129.257812 301.371094 128.695312 302.332031 128.527344 C 302.792969 128.699219 303.257812 128.871094 303.710938 129.046875 C 306.390625 134.613281 308.160156 141.296875 308.988281 148.925781 Z M 282.023438 137.121094 C 283.589844 136.117188 285.109375 135.230469 286.570312 134.4375 C 289.113281 140.71875 290.472656 146.390625 290.699219 151.695312 C 289.644531 151.933594 288.597656 152.1875 287.558594 152.449219 C 285.476562 147.804688 283.636719 142.714844 282.023438 137.121094 Z M 293.632812 151.074219 C 293.421875 147.257812 292.671875 143.277344 291.367188 139.0625 C 294.09375 142.46875 296.527344 146.183594 298.644531 150.179688 C 296.957031 150.449219 295.285156 150.742188 293.632812 151.074219 Z M 301.734375 149.714844 C 298.492188 143.390625 294.492188 137.710938 289.816406 132.792969 C 290.496094 132.46875 291.160156 132.167969 291.800781 131.890625 C 296.769531 137.511719 300.796875 143.277344 304.050781 149.433594 C 303.277344 149.523438 302.503906 149.613281 301.734375 149.714844 Z M 269.199219 147.429688 C 270.109375 150.828125 271.167969 154.144531 272.390625 157.371094 C 268.363281 158.992188 264.417969 160.84375 260.617188 162.898438 L 258.328125 160.46875 C 261.859375 155.367188 265.535156 151.050781 269.199219 147.429688 Z M 273.484375 160.121094 C 274.203125 161.867188 274.972656 163.597656 275.789062 165.304688 C 272.574219 166.472656 269.453125 167.75 266.46875 169.117188 L 262.71875 165.132812 C 266.203125 163.277344 269.808594 161.597656 273.484375 160.121094 Z M 277.113281 167.96875 C 278.6875 171.019531 280.433594 174.007812 282.339844 176.945312 C 279.75 177.203125 277.175781 177.480469 274.636719 177.792969 L 268.609375 171.390625 C 271.34375 170.167969 274.1875 169.023438 277.113281 167.96875 Z M 285.597656 176.535156 C 279.085938 166.785156 274.507812 156.484375 271.640625 145.117188 C 272.632812 144.214844 273.617188 143.359375 274.597656 142.550781 C 277.921875 155.019531 282.503906 165.289062 288.546875 173.828125 C 287.5625 174.730469 286.578125 175.617188 285.597656 176.535156 Z M 290.75 171.816406 C 284.816406 163.347656 280.34375 153.09375 277.121094 140.550781 C 277.90625 139.953125 278.683594 139.390625 279.457031 138.847656 C 281.144531 144.570312 283.066406 149.796875 285.257812 154.550781 C 285.257812 154.554688 285.257812 154.558594 285.257812 154.5625 C 285.296875 154.714844 285.363281 154.851562 285.445312 154.980469 C 286.765625 157.816406 288.179688 160.496094 289.695312 163.015625 C 289.710938 163.046875 289.726562 163.078125 289.746094 163.109375 C 291.015625 165.210938 292.367188 167.1875 293.777344 169.085938 C 292.761719 169.980469 291.757812 170.902344 290.75 171.816406 Z M 307.324219 157.664062 C 301.957031 158.414062 296.71875 159.398438 291.710938 160.582031 C 290.707031 158.855469 289.746094 157.058594 288.828125 155.179688 C 297.132812 153.132812 306.007812 151.886719 315.289062 151.484375 C 312.617188 153.496094 309.960938 155.554688 307.324219 157.664062 Z M 319.933594 148.074219 C 319.414062 143.878906 318.730469 139.742188 317.878906 135.699219 C 319.113281 136.386719 320.316406 137.085938 321.488281 137.796875 C 322 140.492188 322.4375 143.234375 322.808594 145.984375 C 321.84375 146.667969 320.890625 147.382812 319.933594 148.074219 Z M 325.523438 144.109375 C 325.324219 142.710938 325.105469 141.324219 324.871094 139.9375 C 326.019531 140.695312 327.140625 141.464844 328.226562 142.238281 C 327.324219 142.851562 326.421875 143.480469 325.523438 144.109375 Z M 206.175781 129.363281 C 204.878906 130.417969 203.707031 132.601562 205.476562 137.039062 C 205.710938 137.625 205.546875 138.304688 205.066406 138.730469 C 204.710938 139.046875 204.234375 139.179688 203.757812 139.089844 C 203.492188 139.035156 203 138.871094 202.71875 138.3125 C 200.367188 133.671875 197.464844 125.132812 204.476562 120.0625 C 211.40625 115.050781 221.5 125.660156 221.601562 125.769531 L 271.03125 178.277344 C 269.90625 178.429688 268.78125 178.574219 267.652344 178.746094 C 265.277344 179.101562 262.921875 179.5 260.585938 179.929688 L 237.886719 155.816406 C 237.882812 155.8125 237.882812 155.8125 237.878906 155.808594 L 230.707031 148.191406 C 230.664062 148.132812 230.640625 148.070312 230.585938 148.019531 C 230.558594 147.988281 230.519531 147.980469 230.484375 147.953125 L 226.171875 143.371094 C 226.167969 143.367188 226.167969 143.363281 226.164062 143.363281 L 214.929688 131.425781 C 213.058594 129.542969 209.105469 126.992188 206.175781 129.363281 Z M 222.554688 143.839844 C 220.132812 144.824219 217.6875 145.898438 215.226562 147.050781 C 216.800781 145.082031 218.46875 143.191406 220.226562 141.367188 Z M 211.441406 152.179688 C 214.449219 150.648438 217.445312 149.242188 220.414062 147.949219 C 212.855469 156.402344 206.179688 165.464844 200.660156 174.722656 C 203.105469 166.671875 206.746094 159.078125 211.441406 152.179688 Z M 193.113281 201.757812 L 192.90625 201.699219 C 192.085938 201.394531 191.671875 200.457031 191.976562 199.609375 C 193.644531 194.984375 195.671875 190.3125 198.015625 185.648438 C 198.019531 185.644531 198.023438 185.636719 198.023438 185.632812 C 204.78125 172.195312 214.199219 158.835938 225.40625 146.871094 L 227.519531 149.117188 C 216.964844 160.386719 208.042969 172.953125 201.492188 185.636719 C 201.492188 185.640625 201.488281 185.644531 201.488281 185.648438 C 198.898438 190.664062 196.667969 195.699219 194.867188 200.683594 C 194.585938 201.464844 193.796875 201.917969 193.113281 201.757812 Z M 196.957031 208.375 C 197.003906 208.335938 199.402344 206.28125 204.222656 203.292969 C 204.253906 203.28125 204.28125 203.25 204.3125 203.238281 C 208.042969 200.925781 213.207031 198.070312 219.882812 195.132812 C 219.144531 198.195312 218.484375 201.277344 217.925781 204.378906 C 206.441406 209.605469 198.382812 214.292969 196.925781 215.152344 C 196.339844 215.234375 195.089844 215.203125 194.523438 213.6875 C 193.546875 211.078125 196.859375 208.453125 196.957031 208.375 Z M 195.671875 221.78125 C 194.894531 219.589844 198.097656 217.890625 198.132812 217.871094 C 198.144531 217.867188 198.152344 217.855469 198.164062 217.847656 C 198.179688 217.835938 198.203125 217.835938 198.21875 217.824219 C 198.296875 217.777344 205.851562 213.238281 217.347656 207.894531 C 217.074219 209.617188 216.832031 211.339844 216.613281 213.058594 C 210.578125 216.164062 204.636719 219.660156 198.960938 223.457031 C 198.734375 223.546875 197.824219 223.863281 197.050781 223.546875 C 196.46875 223.3125 196 222.714844 195.671875 221.78125 Z M 199.75 231.050781 C 199.253906 230.929688 198.835938 230.542969 198.460938 229.871094 C 197.4375 228.015625 200.433594 226.027344 200.484375 225.992188 C 205.554688 222.597656 210.832031 219.464844 216.191406 216.628906 C 216.003906 218.40625 215.847656 220.179688 215.726562 221.949219 C 210.902344 224.613281 206.121094 227.546875 201.523438 230.683594 C 201.515625 230.6875 200.589844 231.253906 199.75 231.050781 Z M 220.800781 262.644531 C 218.886719 261.164062 220.4375 258.664062 220.605469 258.402344 C 233.386719 239.722656 246.429688 222.800781 259.839844 207.519531 C 259.84375 207.511719 259.851562 207.507812 259.855469 207.5 C 262.597656 204.375 265.355469 201.332031 268.128906 198.34375 C 268.144531 198.320312 268.167969 198.304688 268.183594 198.285156 C 274.425781 191.558594 280.753906 185.171875 287.171875 179.121094 C 287.226562 179.070312 287.285156 179.027344 287.328125 178.972656 C 290.417969 176.0625 293.535156 173.246094 296.671875 170.488281 C 296.671875 170.484375 296.679688 170.484375 296.679688 170.484375 C 296.6875 170.480469 296.6875 170.472656 296.691406 170.46875 C 307.746094 160.753906 319.078125 151.972656 330.746094 144.089844 C 331.992188 145.035156 333.203125 145.988281 334.359375 146.945312 C 331.085938 149.214844 327.835938 151.570312 324.605469 153.988281 C 324.554688 154.015625 324.515625 154.0625 324.464844 154.09375 C 320.023438 157.421875 315.625 160.886719 311.265625 164.496094 C 311.238281 164.515625 311.21875 164.535156 311.195312 164.554688 C 285.804688 185.585938 261.691406 211.445312 238.277344 242.785156 C 238.210938 242.855469 238.136719 242.921875 238.085938 243.003906 C 238.0625 243.039062 238.046875 243.078125 238.027344 243.117188 C 233.421875 249.292969 228.839844 255.667969 224.28125 262.269531 C 223.90625 262.632812 222.402344 263.878906 220.800781 262.644531 Z M 231.632812 256.957031 C 232.765625 261.136719 234.101562 265.144531 235.679688 268.90625 C 232.808594 267.09375 230.050781 265.09375 227.425781 262.941406 C 228.828125 260.921875 230.230469 258.933594 231.632812 256.957031 Z M 247.390625 279.761719 C 244.855469 279.148438 241.675781 274.617188 240.285156 271.933594 C 237.617188 266.46875 235.464844 260.375 233.859375 253.824219 C 235.421875 251.648438 236.988281 249.507812 238.554688 247.382812 C 242.242188 264.195312 248.363281 275.707031 249.898438 278.417969 C 249.589844 279.136719 248.886719 280.117188 247.390625 279.761719 Z M 252.511719 277.027344 C 251.378906 275.011719 246.601562 266.074219 242.984375 252.921875 C 255.550781 256.652344 267.820312 258.542969 279.644531 258.542969 C 284.738281 258.542969 289.742188 258.175781 294.660156 257.484375 C 293.296875 259.953125 291.867188 262.371094 290.398438 264.757812 C 281.402344 266.726562 271.671875 267.726562 261.445312 267.726562 C 261.164062 267.726562 260.84375 267.742188 260.597656 267.722656 C 259.785156 267.722656 259.125 268.378906 259.121094 269.195312 C 259.117188 270.011719 259.773438 270.675781 260.589844 270.679688 C 260.875 270.683594 261.160156 270.683594 261.445312 270.683594 C 270.816406 270.683594 279.789062 269.859375 288.1875 268.238281 C 285.316406 272.667969 282.277344 276.964844 279.042969 281.078125 C 278.894531 281.269531 278.773438 281.476562 278.65625 281.683594 C 272.589844 281.585938 266.5 280.832031 260.546875 279.402344 C 257.828125 278.75 255.132812 277.941406 252.511719 277.027344 Z M 283.722656 284.960938 C 283.34375 285.449219 282.726562 285.667969 282.160156 285.535156 C 281.9375 285.484375 281.746094 285.386719 281.570312 285.238281 C 281.25 284.972656 281.046875 284.585938 281.007812 284.148438 C 280.964844 283.703125 281.089844 283.261719 281.367188 282.910156 C 285.363281 277.824219 289.070312 272.480469 292.519531 266.933594 C 292.554688 266.882812 292.585938 266.839844 292.613281 266.789062 C 294.695312 263.429688 296.667969 259.984375 298.546875 256.46875 C 298.589844 256.410156 298.613281 256.34375 298.648438 256.277344 C 301.683594 250.582031 304.457031 244.695312 306.933594 238.613281 C 306.960938 238.5625 306.972656 238.511719 306.996094 238.457031 C 307.460938 237.308594 307.90625 236.152344 308.355469 234.992188 L 310.699219 237.484375 C 303.863281 254.894531 294.792969 270.867188 283.722656 284.960938 Z M 297.144531 279.898438 C 309.6875 273.335938 319.140625 264.984375 326.402344 254.15625 L 328.414062 256.292969 C 325.925781 259.433594 323.171875 262.40625 320.183594 265.128906 C 319.582031 265.679688 319.535156 266.617188 320.089844 267.21875 C 320.378906 267.539062 320.78125 267.699219 321.183594 267.699219 C 321.535156 267.699219 321.894531 267.574219 322.175781 267.316406 C 325.175781 264.582031 327.945312 261.605469 330.457031 258.46875 L 333.679688 261.890625 C 323.195312 270.804688 310.535156 277.023438 297.144531 279.898438 Z M 368.441406 288.132812 C 366.6875 289.785156 363.917969 289.703125 362.265625 287.945312 L 354.652344 279.855469 C 357.589844 278.3125 359.742188 276.34375 361.113281 273.972656 L 368.628906 281.957031 C 369.429688 282.808594 369.851562 283.917969 369.8125 285.085938 C 369.777344 286.253906 369.292969 287.332031 368.441406 288.132812 Z M 368.441406 288.132812 " fill-opacity="1" fill-rule="nonzero"/></g><g clip-path="url(#f1dab2f368)"><path fill="#ffffff" d="M -27.714844 169.890625 L 372.722656 169.890625 L 372.722656 216.53125 L -27.714844 216.53125 Z M -27.714844 169.890625 " fill-opacity="1" fill-rule="nonzero"/></g><g fill="#000000" fill-opacity="1"><g transform="translate(29.659914, 202.527145)"><g><path d="M 11.046875 0.15625 C 9.210938 0.15625 7.5625 -0.25 6.09375 -1.0625 C 4.625 -1.875 3.46875 -2.992188 2.625 -4.421875 C 1.789062 -5.859375 1.375 -7.46875 1.375 -9.25 C 1.375 -11.03125 1.789062 -12.640625 2.625 -14.078125 C 3.46875 -15.515625 4.628906 -16.640625 6.109375 -17.453125 C 7.585938 -18.265625 9.242188 -18.671875 11.078125 -18.671875 C 12.453125 -18.671875 13.71875 -18.441406 14.875 -17.984375 C 16.039062 -17.523438 17.03125 -16.851562 17.84375 -15.96875 L 16.609375 -14.71875 C 15.160156 -16.1875 13.332031 -16.921875 11.125 -16.921875 C 9.664062 -16.921875 8.335938 -16.582031 7.140625 -15.90625 C 5.941406 -15.238281 5.003906 -14.320312 4.328125 -13.15625 C 3.648438 -12 3.3125 -10.695312 3.3125 -9.25 C 3.3125 -7.800781 3.648438 -6.492188 4.328125 -5.328125 C 5.003906 -4.171875 5.941406 -3.257812 7.140625 -2.59375 C 8.335938 -1.925781 9.664062 -1.59375 11.125 -1.59375 C 13.351562 -1.59375 15.179688 -2.332031 16.609375 -3.8125 L 17.84375 -2.5625 C 17.03125 -1.6875 16.035156 -1.015625 14.859375 -0.546875 C 13.691406 -0.078125 12.421875 0.15625 11.046875 0.15625 Z M 11.046875 0.15625 "/></g></g></g><g fill="#000000" fill-opacity="1"><g transform="translate(57.106409, 202.527145)"><g><path d="M 11.109375 0.15625 C 9.273438 0.15625 7.613281 -0.25 6.125 -1.0625 C 4.632812 -1.882812 3.46875 -3.007812 2.625 -4.4375 C 1.789062 -5.863281 1.375 -7.46875 1.375 -9.25 C 1.375 -11.03125 1.789062 -12.632812 2.625 -14.0625 C 3.46875 -15.488281 4.632812 -16.613281 6.125 -17.4375 C 7.613281 -18.257812 9.273438 -18.671875 11.109375 -18.671875 C 12.941406 -18.671875 14.59375 -18.265625 16.0625 -17.453125 C 17.53125 -16.640625 18.6875 -15.515625 19.53125 -14.078125 C 20.382812 -12.640625 20.8125 -11.03125 20.8125 -9.25 C 20.8125 -7.46875 20.382812 -5.859375 19.53125 -4.421875 C 18.6875 -2.992188 17.53125 -1.875 16.0625 -1.0625 C 14.59375 -0.25 12.941406 0.15625 11.109375 0.15625 Z M 11.109375 -1.59375 C 12.566406 -1.59375 13.882812 -1.921875 15.0625 -2.578125 C 16.25 -3.234375 17.175781 -4.144531 17.84375 -5.3125 C 18.507812 -6.488281 18.84375 -7.800781 18.84375 -9.25 C 18.84375 -10.695312 18.507812 -12.003906 17.84375 -13.171875 C 17.175781 -14.347656 16.25 -15.265625 15.0625 -15.921875 C 13.882812 -16.585938 12.566406 -16.921875 11.109375 -16.921875 C 9.640625 -16.921875 8.3125 -16.585938 7.125 -15.921875 C 5.9375 -15.265625 5.003906 -14.347656 4.328125 -13.171875 C 3.648438 -12.003906 3.3125 -10.695312 3.3125 -9.25 C 3.3125 -7.800781 3.648438 -6.488281 4.328125 -5.3125 C 5.003906 -4.144531 5.9375 -3.234375 7.125 -2.578125 C 8.3125 -1.921875 9.640625 -1.59375 11.109375 -1.59375 Z M 11.109375 -1.59375 "/></g></g></g><g fill="#000000" fill-opacity="1"><g transform="translate(87.7254, 202.527145)"><g><path d="M 2.828125 -19.75 C 3.234375 -19.75 3.566406 -19.609375 3.828125 -19.328125 C 4.097656 -19.054688 4.234375 -18.722656 4.234375 -18.328125 C 4.234375 -18.109375 4.203125 -17.878906 4.140625 -17.640625 C 4.078125 -17.410156 3.992188 -17.132812 3.890625 -16.8125 L 2.75 -13.171875 L 1.484375 -13.171875 L 2.40625 -16.96875 C 2.101562 -17.0625 1.863281 -17.222656 1.6875 -17.453125 C 1.507812 -17.691406 1.421875 -17.984375 1.421875 -18.328125 C 1.421875 -18.742188 1.550781 -19.082031 1.8125 -19.34375 C 2.082031 -19.613281 2.421875 -19.75 2.828125 -19.75 Z M 2.828125 -19.75 "/></g></g></g><g fill="#000000" fill-opacity="1"><g transform="translate(101.768107, 202.527145)"><g><path d="M 8.109375 0.15625 C 6.734375 0.15625 5.414062 -0.0625 4.15625 -0.5 C 2.90625 -0.9375 1.9375 -1.519531 1.25 -2.25 L 2.015625 -3.75 C 2.679688 -3.082031 3.566406 -2.539062 4.671875 -2.125 C 5.785156 -1.707031 6.929688 -1.5 8.109375 -1.5 C 9.765625 -1.5 11.007812 -1.800781 11.84375 -2.40625 C 12.675781 -3.019531 13.09375 -3.8125 13.09375 -4.78125 C 13.09375 -5.519531 12.863281 -6.109375 12.40625 -6.546875 C 11.957031 -6.992188 11.40625 -7.335938 10.75 -7.578125 C 10.101562 -7.816406 9.195312 -8.078125 8.03125 -8.359375 C 6.644531 -8.710938 5.535156 -9.050781 4.703125 -9.375 C 3.878906 -9.695312 3.171875 -10.191406 2.578125 -10.859375 C 1.984375 -11.535156 1.6875 -12.445312 1.6875 -13.59375 C 1.6875 -14.519531 1.929688 -15.367188 2.421875 -16.140625 C 2.921875 -16.910156 3.679688 -17.523438 4.703125 -17.984375 C 5.722656 -18.441406 6.992188 -18.671875 8.515625 -18.671875 C 9.566406 -18.671875 10.597656 -18.523438 11.609375 -18.234375 C 12.628906 -17.941406 13.507812 -17.539062 14.25 -17.03125 L 13.59375 -15.46875 C 12.8125 -15.976562 11.976562 -16.359375 11.09375 -16.609375 C 10.21875 -16.867188 9.359375 -17 8.515625 -17 C 6.890625 -17 5.664062 -16.6875 4.84375 -16.0625 C 4.03125 -15.4375 3.625 -14.628906 3.625 -13.640625 C 3.625 -12.898438 3.847656 -12.304688 4.296875 -11.859375 C 4.742188 -11.410156 5.304688 -11.066406 5.984375 -10.828125 C 6.660156 -10.585938 7.570312 -10.328125 8.71875 -10.046875 C 10.082031 -9.710938 11.179688 -9.378906 12.015625 -9.046875 C 12.847656 -8.722656 13.554688 -8.226562 14.140625 -7.5625 C 14.722656 -6.90625 15.015625 -6.015625 15.015625 -4.890625 C 15.015625 -3.953125 14.765625 -3.097656 14.265625 -2.328125 C 13.765625 -1.566406 12.992188 -0.960938 11.953125 -0.515625 C 10.910156 -0.0664062 9.628906 0.15625 8.109375 0.15625 Z M 8.109375 0.15625 "/></g></g></g><g fill="#000000" fill-opacity="1"><g transform="translate(126.465102, 202.527145)"><g/></g></g><g fill="#000000" fill-opacity="1"><g transform="translate(141.829675, 202.527145)"><g><path d="M 11.046875 0.15625 C 9.210938 0.15625 7.5625 -0.25 6.09375 -1.0625 C 4.625 -1.875 3.46875 -2.992188 2.625 -4.421875 C 1.789062 -5.859375 1.375 -7.46875 1.375 -9.25 C 1.375 -11.03125 1.789062 -12.640625 2.625 -14.078125 C 3.46875 -15.515625 4.628906 -16.640625 6.109375 -17.453125 C 7.585938 -18.265625 9.242188 -18.671875 11.078125 -18.671875 C 12.453125 -18.671875 13.71875 -18.441406 14.875 -17.984375 C 16.039062 -17.523438 17.03125 -16.851562 17.84375 -15.96875 L 16.609375 -14.71875 C 15.160156 -16.1875 13.332031 -16.921875 11.125 -16.921875 C 9.664062 -16.921875 8.335938 -16.582031 7.140625 -15.90625 C 5.941406 -15.238281 5.003906 -14.320312 4.328125 -13.15625 C 3.648438 -12 3.3125 -10.695312 3.3125 -9.25 C 3.3125 -7.800781 3.648438 -6.492188 4.328125 -5.328125 C 5.003906 -4.171875 5.941406 -3.257812 7.140625 -2.59375 C 8.335938 -1.925781 9.664062 -1.59375 11.125 -1.59375 C 13.351562 -1.59375 15.179688 -2.332031 16.609375 -3.8125 L 17.84375 -2.5625 C 17.03125 -1.6875 16.035156 -1.015625 14.859375 -0.546875 C 13.691406 -0.078125 12.421875 0.15625 11.046875 0.15625 Z M 11.046875 0.15625 "/></g></g></g><g fill="#000000" fill-opacity="1"><g transform="translate(169.276176, 202.527145)"><g><path d="M 15.65625 0 L 11.421875 -5.953125 C 10.941406 -5.898438 10.445312 -5.875 9.9375 -5.875 L 4.96875 -5.875 L 4.96875 0 L 3.015625 0 L 3.015625 -18.5 L 9.9375 -18.5 C 12.300781 -18.5 14.148438 -17.9375 15.484375 -16.8125 C 16.828125 -15.6875 17.5 -14.132812 17.5 -12.15625 C 17.5 -10.71875 17.132812 -9.5 16.40625 -8.5 C 15.675781 -7.5 14.628906 -6.78125 13.265625 -6.34375 L 17.796875 0 Z M 9.890625 -7.53125 C 11.722656 -7.53125 13.125 -7.9375 14.09375 -8.75 C 15.0625 -9.5625 15.546875 -10.695312 15.546875 -12.15625 C 15.546875 -13.65625 15.0625 -14.804688 14.09375 -15.609375 C 13.125 -16.410156 11.722656 -16.8125 9.890625 -16.8125 L 4.96875 -16.8125 L 4.96875 -7.53125 Z M 9.890625 -7.53125 "/></g></g></g><g fill="#000000" fill-opacity="1"><g transform="translate(196.82842, 202.527145)"><g><path d="M 11.109375 0.15625 C 9.273438 0.15625 7.613281 -0.25 6.125 -1.0625 C 4.632812 -1.882812 3.46875 -3.007812 2.625 -4.4375 C 1.789062 -5.863281 1.375 -7.46875 1.375 -9.25 C 1.375 -11.03125 1.789062 -12.632812 2.625 -14.0625 C 3.46875 -15.488281 4.632812 -16.613281 6.125 -17.4375 C 7.613281 -18.257812 9.273438 -18.671875 11.109375 -18.671875 C 12.941406 -18.671875 14.59375 -18.265625 16.0625 -17.453125 C 17.53125 -16.640625 18.6875 -15.515625 19.53125 -14.078125 C 20.382812 -12.640625 20.8125 -11.03125 20.8125 -9.25 C 20.8125 -7.46875 20.382812 -5.859375 19.53125 -4.421875 C 18.6875 -2.992188 17.53125 -1.875 16.0625 -1.0625 C 14.59375 -0.25 12.941406 0.15625 11.109375 0.15625 Z M 11.109375 -1.59375 C 12.566406 -1.59375 13.882812 -1.921875 15.0625 -2.578125 C 16.25 -3.234375 17.175781 -4.144531 17.84375 -5.3125 C 18.507812 -6.488281 18.84375 -7.800781 18.84375 -9.25 C 18.84375 -10.695312 18.507812 -12.003906 17.84375 -13.171875 C 17.175781 -14.347656 16.25 -15.265625 15.0625 -15.921875 C 13.882812 -16.585938 12.566406 -16.921875 11.109375 -16.921875 C 9.640625 -16.921875 8.3125 -16.585938 7.125 -15.921875 C 5.9375 -15.265625 5.003906 -14.347656 4.328125 -13.171875 C 3.648438 -12.003906 3.3125 -10.695312 3.3125 -9.25 C 3.3125 -7.800781 3.648438 -6.488281 4.328125 -5.3125 C 5.003906 -4.144531 5.9375 -3.234375 7.125 -2.578125 C 8.3125 -1.921875 9.640625 -1.59375 11.109375 -1.59375 Z M 11.109375 -1.59375 "/></g></g></g><g fill="#000000" fill-opacity="1"><g transform="translate(227.447406, 202.527145)"><g><path d="M 11.046875 0.15625 C 9.210938 0.15625 7.5625 -0.25 6.09375 -1.0625 C 4.625 -1.875 3.46875 -2.992188 2.625 -4.421875 C 1.789062 -5.859375 1.375 -7.46875 1.375 -9.25 C 1.375 -11.03125 1.789062 -12.640625 2.625 -14.078125 C 3.46875 -15.515625 4.628906 -16.640625 6.109375 -17.453125 C 7.585938 -18.265625 9.242188 -18.671875 11.078125 -18.671875 C 12.453125 -18.671875 13.71875 -18.441406 14.875 -17.984375 C 16.039062 -17.523438 17.03125 -16.851562 17.84375 -15.96875 L 16.609375 -14.71875 C 15.160156 -16.1875 13.332031 -16.921875 11.125 -16.921875 C 9.664062 -16.921875 8.335938 -16.582031 7.140625 -15.90625 C 5.941406 -15.238281 5.003906 -14.320312 4.328125 -13.15625 C 3.648438 -12 3.3125 -10.695312 3.3125 -9.25 C 3.3125 -7.800781 3.648438 -6.492188 4.328125 -5.328125 C 5.003906 -4.171875 5.941406 -3.257812 7.140625 -2.59375 C 8.335938 -1.925781 9.664062 -1.59375 11.125 -1.59375 C 13.351562 -1.59375 15.179688 -2.332031 16.609375 -3.8125 L 17.84375 -2.5625 C 17.03125 -1.6875 16.035156 -1.015625 14.859375 -0.546875 C 13.691406 -0.078125 12.421875 0.15625 11.046875 0.15625 Z M 11.046875 0.15625 "/></g></g></g><g fill="#000000" fill-opacity="1"><g transform="translate(254.893907, 202.527145)"><g><path d="M 18.484375 -18.5 L 18.484375 0 L 16.546875 0 L 16.546875 -8.546875 L 4.96875 -8.546875 L 4.96875 0 L 3.015625 0 L 3.015625 -18.5 L 4.96875 -18.5 L 4.96875 -10.25 L 16.546875 -10.25 L 16.546875 -18.5 Z M 18.484375 -18.5 "/></g></g></g><g fill="#000000" fill-opacity="1"><g transform="translate(284.825515, 202.527145)"><g><path d="M 16.09375 -1.6875 L 16.09375 0 L 3.015625 0 L 3.015625 -18.5 L 15.703125 -18.5 L 15.703125 -16.8125 L 4.96875 -16.8125 L 4.96875 -10.234375 L 14.546875 -10.234375 L 14.546875 -8.5625 L 4.96875 -8.5625 L 4.96875 -1.6875 Z M 16.09375 -1.6875 "/></g></g></g><g fill="#000000" fill-opacity="1"><g transform="translate(310.950132, 202.527145)"><g><path d="M 6.609375 -16.8125 L 0.109375 -16.8125 L 0.109375 -18.5 L 15.0625 -18.5 L 15.0625 -16.8125 L 8.5625 -16.8125 L 8.5625 0 L 6.609375 0 Z M 6.609375 -16.8125 "/></g></g></g></svg>