<svg xmlns="http://www.w3.org/2000/svg" xmlns:xlink="http://www.w3.org/1999/xlink" width="500" zoomAndPan="magnify" viewBox="0 0 375 374.999991" height="500" preserveAspectRatio="xMidYMid meet" version="1.0"><defs><g/><clipPath id="872d15abf9"><path d="M 190.140625 86 L 341.640625 86 L 341.640625 238.503906 L 190.140625 238.503906 Z M 190.140625 86 " clip-rule="nonzero"/></clipPath></defs><path stroke-linecap="butt" transform="matrix(0, -0.75, 0.75, 0, 175.855613, 238.81166)" fill="none" stroke-linejoin="miter" d="M -0.00111958 0.999808 L 206.410352 0.999808 " stroke="#000000" stroke-width="2" stroke-opacity="1" stroke-miterlimit="4"/><g clip-path="url(#872d15abf9)"><path fill="#000000" d="M 339.957031 228.203125 L 329.570312 217.222656 L 323.023438 210.296875 C 323.023438 210.292969 323.019531 210.292969 323.019531 210.292969 L 319.601562 206.679688 C 326.507812 198.40625 331.320312 188.878906 333.871094 178.320312 C 334.605469 175.277344 335.113281 172.222656 335.441406 169.167969 C 335.441406 169.15625 335.449219 169.148438 335.453125 169.136719 C 335.460938 169.097656 335.449219 169.0625 335.453125 169.027344 C 336.246094 161.457031 335.804688 153.867188 334.085938 146.363281 C 334.195312 144.0625 334.894531 118.152344 313.679688 101.441406 C 291.753906 84.171875 267.722656 86.496094 266.566406 86.621094 C 263.03125 86.136719 259.703125 85.945312 256.699219 86.054688 C 239.921875 86.671875 227.5625 93.578125 223.121094 104.644531 L 219.230469 100.53125 C 218.832031 100.105469 209.394531 90.222656 201.972656 95.5625 C 196.703125 99.359375 195.90625 105.910156 199.789062 113.53125 C 200.300781 114.539062 201.234375 115.234375 202.351562 115.449219 C 203.480469 115.664062 204.628906 115.351562 205.492188 114.589844 C 206.648438 113.570312 207.042969 111.929688 206.472656 110.503906 C 206.214844 109.863281 205.445312 107.710938 206.320312 107.003906 C 207.425781 106.109375 209.707031 107.96875 210.234375 108.492188 L 214.664062 113.175781 C 211.976562 115.9375 209.53125 118.910156 207.351562 122.054688 C 207.332031 122.082031 207.316406 122.109375 207.296875 122.136719 C 202.433594 129.179688 198.871094 137.085938 196.839844 145.5 C 196.472656 147.027344 196.152344 148.578125 195.886719 150.121094 C 193.933594 153.996094 192.242188 157.882812 190.847656 161.726562 C 190.148438 163.664062 191.136719 165.8125 193.125 166.546875 L 193.433594 166.636719 C 193.71875 166.703125 194.003906 166.734375 194.285156 166.734375 C 194.546875 166.734375 194.804688 166.699219 195.058594 166.644531 C 195.09375 167.191406 195.125 167.742188 195.171875 168.285156 C 194.101562 169.289062 191.8125 171.875 192.949219 174.902344 C 193.375 176.03125 194.058594 176.730469 194.804688 177.148438 C 193.875 178.261719 193.265625 179.753906 193.878906 181.480469 C 194.390625 182.921875 195.230469 183.890625 196.382812 184.355469 C 196.429688 184.375 196.480469 184.378906 196.527344 184.398438 C 195.828125 185.554688 195.511719 186.972656 196.332031 188.453125 C 197.132812 189.898438 198.191406 190.417969 198.941406 190.597656 C 199.246094 190.671875 199.546875 190.703125 199.832031 190.703125 C 200.269531 190.703125 200.675781 190.625 201.027344 190.527344 C 204.28125 197.769531 208.691406 204.347656 214.160156 210.113281 C 213.425781 211.726562 213.058594 214.246094 215.316406 215.984375 C 216.210938 216.671875 217.113281 216.933594 217.953125 216.933594 C 218.972656 216.933594 219.890625 216.550781 220.589844 216.09375 C 223.78125 218.710938 227.207031 221.058594 230.804688 223.070312 C 231.582031 224.492188 234.574219 229.578125 238.066406 230.414062 C 238.445312 230.503906 238.8125 230.550781 239.171875 230.550781 C 240.378906 230.550781 241.4375 230.035156 242.226562 229.050781 C 242.421875 228.808594 242.578125 228.5625 242.707031 228.328125 C 244.726562 229.007812 246.789062 229.621094 248.871094 230.121094 C 253.796875 231.300781 258.828125 231.929688 263.851562 232.039062 C 263.980469 232.972656 264.429688 233.808594 265.148438 234.402344 C 265.582031 234.757812 266.074219 235.003906 266.617188 235.132812 C 266.894531 235.199219 267.175781 235.230469 267.457031 235.230469 C 268.570312 235.230469 269.660156 234.71875 270.375 233.808594 C 270.902344 233.140625 271.40625 232.449219 271.921875 231.769531 C 286.277344 230.433594 300.140625 224.574219 311.15625 215.214844 L 331.195312 236.410156 C 332.378906 237.660156 333.976562 238.289062 335.578125 238.289062 C 337.054688 238.289062 338.539062 237.75 339.699219 236.664062 C 340.867188 235.570312 341.539062 234.085938 341.585938 232.484375 C 341.636719 230.890625 341.058594 229.371094 339.957031 228.203125 Z M 323.667969 224.925781 C 325.949219 223.726562 327.71875 222.109375 328.960938 220.101562 L 330.261719 221.476562 C 329.339844 223.480469 327.597656 225.066406 324.96875 226.300781 Z M 320.363281 221.429688 C 322.625 220.339844 324.382812 218.710938 325.617188 216.566406 L 327.226562 218.265625 C 326.109375 220.363281 324.367188 221.953125 321.929688 223.085938 Z M 317.285156 218.175781 C 319.457031 217.019531 321.179688 215.355469 322.4375 213.203125 L 323.859375 214.707031 C 322.746094 217 321.015625 218.601562 318.601562 219.570312 Z M 287.292969 186.457031 L 279.085938 177.777344 C 279.085938 177.777344 279.085938 177.777344 279.082031 177.773438 L 272.515625 170.832031 C 275.476562 170.46875 278.453125 170.144531 281.445312 169.851562 L 286.660156 175.371094 C 286.664062 175.371094 286.664062 175.371094 286.664062 175.375 L 290.597656 179.53125 C 290.699219 179.75 290.871094 179.925781 291.089844 180.050781 L 294.757812 183.929688 C 294.757812 183.929688 294.761719 183.933594 294.761719 183.933594 L 320.691406 211.355469 C 319.527344 213.644531 317.839844 215.289062 315.554688 216.34375 Z M 294.503906 197.605469 C 291.996094 205.566406 287.394531 212.667969 280.777344 218.804688 C 285.25 211.449219 289.152344 203.640625 292.453125 195.4375 Z M 293.695312 205.9375 C 295.820312 205.199219 297.941406 204.359375 300.023438 203.445312 L 301.445312 204.949219 C 298.371094 206.820312 294.449219 209.046875 290.816406 210.828125 C 291.875 209.246094 292.835938 207.613281 293.695312 205.9375 Z M 295.15625 202.820312 C 295.605469 201.765625 296.027344 200.703125 296.402344 199.617188 L 298.25 201.574219 C 297.226562 202.007812 296.195312 202.425781 295.15625 202.820312 Z M 276.488281 225.460938 C 280.914062 222.234375 284.707031 218.679688 287.855469 214.824219 C 291.238281 213.441406 295.375 211.269531 299.054688 209.167969 C 292.984375 216.960938 285.140625 222.976562 274.898438 227.734375 C 275.433594 226.980469 275.964844 226.226562 276.488281 225.460938 Z M 282.636719 199.640625 C 277.832031 201.136719 272.917969 202.03125 268.007812 202.265625 C 267.339844 202.300781 266.824219 202.867188 266.855469 203.53125 C 266.886719 204.179688 267.421875 204.683594 268.066406 204.683594 C 268.085938 204.683594 268.105469 204.683594 268.125 204.683594 C 272.515625 204.46875 276.90625 203.738281 281.226562 202.554688 C 280.460938 204.125 279.675781 205.675781 278.863281 207.207031 C 264.867188 209.480469 249.882812 208.203125 234.304688 203.402344 C 234.039062 202.316406 233.785156 201.199219 233.546875 200.058594 C 239.171875 200.742188 244.683594 201.101562 250.058594 201.101562 C 262.191406 201.101562 273.640625 199.339844 284.289062 195.867188 C 283.746094 197.132812 283.207031 198.394531 282.636719 199.640625 Z M 285.519531 192.917969 C 270.113281 198.3125 252.890625 199.921875 234.296875 197.71875 C 235.964844 195.511719 237.640625 193.335938 239.320312 191.195312 C 241.269531 191.28125 243.191406 191.332031 245.082031 191.332031 C 258.5625 191.332031 270.507812 189.132812 282.183594 184.578125 L 284.300781 186.820312 C 275.804688 190.019531 266.675781 192.148438 256.4375 193.28125 C 255.769531 193.355469 255.289062 193.953125 255.363281 194.617188 C 255.433594 195.234375 255.960938 195.691406 256.570312 195.691406 C 256.613281 195.691406 256.660156 195.6875 256.707031 195.683594 C 267.527344 194.488281 277.148438 192.203125 286.101562 188.726562 L 286.859375 189.523438 C 286.425781 190.664062 285.972656 191.792969 285.519531 192.917969 Z M 291.140625 136.945312 C 291.636719 138.820312 292.070312 140.769531 292.449219 142.765625 C 291.742188 142.773438 291.03125 142.761719 290.328125 142.773438 C 290.035156 141.289062 289.714844 139.832031 289.367188 138.421875 C 289.957031 137.917969 290.550781 137.4375 291.140625 136.945312 Z M 317.875 126.808594 C 313.183594 126.648438 308.523438 126.65625 303.964844 126.839844 C 306.609375 124.878906 309.269531 122.960938 311.953125 121.117188 C 314.125 123.023438 316.101562 124.933594 317.875 126.808594 Z M 329.351562 166.6875 C 329.335938 166.683594 329.316406 166.679688 329.300781 166.679688 C 326.234375 166.101562 323.199219 165.585938 320.1875 165.128906 C 320.15625 165.125 320.125 165.117188 320.09375 165.117188 C 313.84375 164.167969 307.714844 163.484375 301.765625 163.0625 C 301.972656 161.894531 302.164062 160.730469 302.347656 159.5625 C 305.542969 159.785156 308.804688 160.070312 312.070312 160.429688 C 312.117188 160.4375 312.160156 160.4375 312.207031 160.4375 C 312.816406 160.4375 313.339844 159.980469 313.410156 159.363281 C 313.484375 158.699219 313.003906 158.101562 312.335938 158.03125 C 309.101562 157.667969 305.871094 157.386719 302.695312 157.167969 C 302.867188 155.929688 303.023438 154.695312 303.164062 153.460938 C 316.421875 153.878906 325.882812 154.921875 325.980469 154.933594 C 326.027344 154.9375 326.074219 154.941406 326.117188 154.941406 C 326.726562 154.941406 327.253906 154.484375 327.324219 153.867188 C 327.398438 153.203125 326.917969 152.609375 326.253906 152.53125 C 326.15625 152.523438 316.691406 151.476562 303.429688 151.050781 C 303.621094 149.128906 303.765625 147.210938 303.878906 145.296875 C 318.34375 145.75 328.902344 147.113281 331.84375 147.527344 C 333.289062 154.125 333.726562 160.785156 333.164062 167.4375 C 331.890625 167.175781 330.617188 166.925781 329.351562 166.6875 Z M 300.265625 186.230469 L 297.597656 183.410156 C 305.042969 179.402344 312.335938 174.34375 320.371094 167.601562 C 321.101562 167.710938 321.835938 167.832031 322.570312 167.953125 C 316.207031 175.285156 308.71875 181.425781 300.265625 186.230469 Z M 301.972656 188.03125 C 305.414062 186.046875 308.707031 183.847656 311.824219 181.4375 C 310.71875 185.964844 309.339844 190.203125 307.714844 194.109375 Z M 326.15625 137.066406 C 328.457031 140.4375 329.972656 143.21875 330.835938 144.949219 C 326.652344 144.402344 316.851562 143.285156 304.011719 142.882812 C 304.082031 141.285156 304.125 139.691406 304.144531 138.101562 C 311.539062 136.636719 318.933594 136.285156 326.15625 137.066406 Z M 301.332031 165.453125 C 304.050781 165.640625 306.804688 165.886719 309.59375 166.1875 C 306.261719 168.667969 302.949219 170.945312 299.6875 172.984375 C 300.296875 170.480469 300.84375 167.96875 301.332031 165.453125 Z M 298.832031 176.355469 C 303.496094 173.5625 308.289062 170.28125 313.089844 166.589844 C 314.433594 166.753906 315.789062 166.933594 317.148438 167.125 C 310.3125 172.730469 303.996094 177.109375 297.621094 180.648438 C 298.042969 179.222656 298.449219 177.789062 298.832031 176.355469 Z M 304.152344 135.640625 C 304.140625 133.5 304.085938 131.371094 303.976562 129.257812 C 309.265625 129.042969 314.6875 129.058594 320.140625 129.3125 C 321.699219 131.097656 323.082031 132.824219 324.296875 134.460938 C 317.664062 133.941406 310.90625 134.34375 304.152344 135.640625 Z M 301.507812 128.667969 C 302.464844 145.582031 300.25 163.484375 295.0625 180.726562 L 293.054688 178.605469 C 293.71875 176.332031 294.316406 174.042969 294.875 171.746094 C 294.910156 171.648438 294.929688 171.554688 294.941406 171.453125 C 295.214844 170.308594 295.488281 169.164062 295.734375 168.011719 C 295.761719 167.949219 295.769531 167.878906 295.785156 167.808594 C 296.023438 166.683594 296.234375 165.558594 296.453125 164.433594 C 296.519531 164.289062 296.566406 164.125 296.570312 163.953125 C 296.574219 163.925781 296.558594 163.898438 296.558594 163.871094 C 296.898438 162.066406 297.207031 160.261719 297.480469 158.453125 C 297.527344 158.332031 297.570312 158.203125 297.574219 158.0625 C 297.578125 158.015625 297.558594 157.980469 297.554688 157.9375 C 297.828125 156.105469 298.066406 154.277344 298.269531 152.449219 C 298.300781 152.347656 298.339844 152.246094 298.339844 152.132812 C 298.34375 152.085938 298.320312 152.042969 298.316406 152 C 298.597656 149.394531 298.8125 146.796875 298.953125 144.210938 C 298.96875 144.132812 299.003906 144.058594 299.003906 143.972656 C 299.003906 143.921875 298.980469 143.878906 298.976562 143.832031 C 299.066406 142.066406 299.121094 140.308594 299.148438 138.554688 C 299.175781 138.421875 299.171875 138.285156 299.15625 138.144531 C 299.183594 135.597656 299.164062 133.066406 299.050781 130.5625 C 299.871094 129.929688 300.6875 129.292969 301.507812 128.667969 Z M 289.550781 174.898438 C 290.328125 174.507812 291.101562 174.109375 291.886719 173.695312 C 291.640625 174.644531 291.371094 175.59375 291.105469 176.542969 Z M 294.917969 142.757812 C 294.785156 142.039062 294.644531 141.328125 294.496094 140.621094 C 295.230469 140.382812 295.964844 140.15625 296.695312 139.941406 C 296.671875 140.878906 296.65625 141.8125 296.613281 142.753906 C 296.046875 142.75 295.484375 142.757812 294.917969 142.757812 Z M 292.664062 170.527344 C 291.03125 171.425781 289.410156 172.269531 287.816406 173.0625 L 284.5 169.554688 C 287.335938 169.300781 290.1875 169.082031 293.042969 168.890625 C 292.917969 169.4375 292.792969 169.984375 292.664062 170.527344 Z M 296.675781 132.433594 C 296.726562 134.085938 296.753906 135.738281 296.742188 137.40625 C 295.824219 137.671875 294.898438 137.953125 293.96875 138.25 C 293.726562 137.230469 293.46875 136.226562 293.191406 135.242188 C 294.347656 134.292969 295.511719 133.359375 296.675781 132.433594 Z M 287.296875 140.207031 C 287.492188 141.066406 287.679688 141.9375 287.859375 142.820312 C 286.621094 142.847656 285.402344 142.894531 284.179688 142.9375 C 285.214844 142.015625 286.253906 141.109375 287.296875 140.207031 Z M 281.398438 145.445312 C 286.328125 145.222656 291.390625 145.136719 296.464844 145.171875 C 296.34375 147.078125 296.1875 148.984375 295.992188 150.902344 C 288.65625 150.828125 281.636719 151 275.035156 151.402344 C 277.144531 149.371094 279.265625 147.382812 281.398438 145.445312 Z M 272.359375 153.992188 C 279.632812 153.457031 287.496094 153.238281 295.738281 153.316406 C 295.601562 154.464844 295.4375 155.617188 295.273438 156.765625 C 286.191406 156.441406 277.308594 156.703125 268.804688 157.554688 C 269.984375 156.355469 271.167969 155.160156 272.359375 153.992188 Z M 266.121094 160.277344 C 275.3125 159.195312 284.992188 158.832031 294.921875 159.175781 C 294.738281 160.339844 294.53125 161.503906 294.316406 162.667969 C 283.238281 162.285156 272.488281 162.84375 262.292969 164.328125 C 263.5625 162.96875 264.839844 161.605469 266.121094 160.277344 Z M 259.625 167.183594 C 270.453125 165.386719 281.960938 164.679688 293.863281 165.070312 C 293.773438 165.523438 293.703125 165.976562 293.605469 166.429688 C 284.058594 167.054688 274.597656 168.03125 265.34375 169.339844 C 265.3125 169.34375 265.28125 169.34375 265.246094 169.351562 C 263.496094 169.601562 261.753906 169.859375 260.019531 170.132812 C 259.992188 170.136719 259.96875 170.140625 259.941406 170.144531 C 258.773438 170.328125 257.613281 170.515625 256.453125 170.707031 C 257.511719 169.527344 258.566406 168.339844 259.625 167.183594 Z M 263.019531 172.113281 C 261.71875 174.253906 260.796875 176.261719 260.125 178.40625 C 259.921875 179.046875 260.277344 179.722656 260.917969 179.921875 C 261.039062 179.960938 261.160156 179.976562 261.28125 179.976562 C 261.796875 179.976562 262.277344 179.648438 262.441406 179.128906 C 263.226562 176.628906 264.414062 174.296875 266.207031 171.65625 C 267.316406 171.5 268.421875 171.347656 269.535156 171.203125 L 276.042969 178.082031 C 269.15625 180.527344 262.5 181.976562 255.953125 182.417969 C 257.011719 178.867188 258.628906 175.585938 260.863281 172.445312 C 261.582031 172.335938 262.296875 172.21875 263.019531 172.113281 Z M 253.882812 173.597656 C 255.117188 173.378906 256.359375 173.171875 257.605469 172.964844 C 255.71875 175.984375 254.335938 179.140625 253.410156 182.535156 C 251.082031 182.601562 248.761719 182.53125 246.453125 182.347656 C 248.917969 179.367188 251.394531 176.441406 253.882812 173.597656 Z M 244.578125 184.617188 C 246.90625 184.863281 249.238281 185.003906 251.582031 185.003906 C 252.480469 185.003906 253.382812 184.972656 254.285156 184.9375 C 254.304688 184.9375 254.324219 184.941406 254.339844 184.941406 C 254.359375 184.941406 254.378906 184.933594 254.398438 184.933594 C 262.042969 184.613281 269.800781 182.980469 277.867188 180.015625 L 280.390625 182.683594 C 268.179688 187.308594 255.613281 189.289062 241.179688 188.847656 C 242.308594 187.425781 243.441406 186.011719 244.578125 184.617188 Z M 317.925781 204.90625 L 309.542969 196.042969 C 311.773438 190.890625 313.578125 185.152344 314.898438 178.949219 C 316.304688 177.757812 317.667969 176.515625 318.996094 175.234375 C 318.019531 181.824219 316.390625 187.957031 314.132812 193.496094 C 313.878906 194.117188 314.179688 194.820312 314.800781 195.070312 C 314.953125 195.132812 315.105469 195.160156 315.257812 195.160156 C 315.738281 195.160156 316.191406 194.875 316.382812 194.40625 C 319.078125 187.796875 320.902344 180.390625 321.820312 172.386719 C 322.496094 171.671875 323.164062 170.949219 323.820312 170.210938 C 323.789062 174.285156 322.960938 179.273438 321.320312 185.128906 C 321.140625 185.769531 321.519531 186.4375 322.164062 186.617188 C 322.273438 186.648438 322.382812 186.660156 322.492188 186.660156 C 323.023438 186.660156 323.511719 186.3125 323.660156 185.777344 C 325.578125 178.933594 326.433594 173.164062 326.222656 168.574219 C 326.789062 168.671875 327.355469 168.78125 327.925781 168.886719 C 328.328125 172.695312 327.78125 177.125 326.277344 182.078125 C 326.082031 182.71875 326.445312 183.394531 327.085938 183.585938 C 327.203125 183.621094 327.320312 183.640625 327.4375 183.640625 C 327.957031 183.640625 328.441406 183.300781 328.601562 182.78125 C 330.109375 177.820312 330.714844 173.3125 330.417969 169.355469 C 331.257812 169.515625 332.097656 169.6875 332.941406 169.859375 C 332.621094 172.496094 332.148438 175.128906 331.511719 177.757812 C 329.070312 187.855469 324.488281 196.972656 317.925781 204.90625 Z M 312.171875 103.335938 C 322.414062 111.402344 327.296875 121.726562 329.621094 130.242188 C 320.28125 108.96875 299.199219 95.59375 279.976562 89.644531 C 288.824219 90.960938 300.886719 94.449219 312.171875 103.335938 Z M 256.789062 88.46875 C 277.210938 87.683594 313.082031 100.980469 326.683594 129.582031 C 320.238281 119.117188 310.847656 110.234375 298.574219 103.074219 C 297.996094 102.738281 297.253906 102.929688 296.914062 103.503906 C 296.574219 104.082031 296.769531 104.820312 297.347656 105.160156 C 309.378906 112.183594 318.558594 120.886719 324.800781 131.148438 C 323.90625 130.011719 322.933594 128.839844 321.886719 127.644531 C 321.792969 127.433594 321.636719 127.261719 321.445312 127.136719 C 319.0625 124.457031 316.28125 121.675781 313.085938 118.914062 C 313.078125 118.902344 313.078125 118.886719 313.070312 118.875 C 312.945312 118.695312 312.773438 118.574219 312.585938 118.484375 C 311.160156 117.269531 309.648438 116.066406 308.050781 114.875 C 307.9375 114.742188 307.800781 114.640625 307.652344 114.574219 C 305.683594 113.121094 303.585938 111.703125 301.351562 110.328125 C 301.253906 110.242188 301.144531 110.179688 301.019531 110.128906 C 299.25 109.046875 297.398438 108 295.457031 106.988281 C 295.382812 106.9375 295.304688 106.902344 295.21875 106.867188 C 292.394531 105.410156 289.394531 104.035156 286.195312 102.777344 C 286.171875 102.769531 286.152344 102.761719 286.128906 102.753906 C 285.539062 102.523438 284.933594 102.300781 284.328125 102.078125 C 284.285156 102.058594 284.246094 102.039062 284.199219 102.027344 C 283.816406 101.886719 283.449219 101.738281 283.0625 101.601562 C 258.195312 92.785156 240.71875 96.851562 231.199219 101.054688 C 237.863281 96.148438 246.847656 93.417969 258.058594 92.9375 C 258.726562 92.90625 259.246094 92.34375 259.21875 91.675781 C 259.191406 91.011719 258.613281 90.5 257.953125 90.523438 C 245.570312 91.050781 235.734375 94.242188 228.570312 100.011719 C 234.054688 93.058594 243.894531 88.941406 256.789062 88.46875 Z M 278.566406 136.007812 C 277.804688 134.984375 277.074219 133.921875 276.363281 132.816406 C 278.898438 132.238281 281.5 131.71875 284.160156 131.273438 C 282.285156 132.820312 280.421875 134.398438 278.566406 136.007812 Z M 210.738281 202.308594 C 209.40625 197.492188 208.734375 191.960938 208.734375 185.847656 C 209.972656 185.101562 211.222656 184.375 212.476562 183.667969 C 212.109375 191.4375 212.46875 198.988281 213.625 205.902344 C 212.625 204.734375 211.65625 203.539062 210.738281 202.308594 Z M 206.316406 187.351562 C 206.375 190.722656 206.636719 193.925781 207.105469 196.929688 C 205.640625 194.511719 204.335938 191.992188 203.175781 189.394531 C 204.214844 188.699219 205.261719 188.015625 206.316406 187.351562 Z M 203.785156 157.136719 C 203.125 157.011719 202.496094 157.445312 202.371094 158.101562 C 202.019531 159.980469 201.769531 161.851562 201.601562 163.679688 C 199.816406 164.792969 198.445312 165.738281 197.476562 166.449219 C 197.445312 165.980469 197.398438 165.511719 197.378906 165.042969 C 197.542969 164.796875 197.6875 164.535156 197.792969 164.242188 C 199.230469 160.273438 201.019531 156.257812 203.09375 152.253906 C 205.074219 150.171875 207.230469 148.195312 209.519531 146.316406 C 207.9375 151 206.695312 155.992188 205.808594 161.21875 C 205.253906 161.523438 204.71875 161.820312 204.214844 162.113281 C 204.359375 160.933594 204.535156 159.742188 204.757812 158.546875 C 204.878906 157.890625 204.445312 157.257812 203.785156 157.136719 Z M 227.84375 127.113281 C 223.359375 128.925781 219.023438 131.152344 214.882812 133.773438 C 217.703125 130.078125 220.75 126.484375 223.988281 123.035156 Z M 210.636719 139.644531 C 215.785156 135.753906 221.3125 132.539062 227.105469 130.039062 C 226.476562 131.164062 225.867188 132.300781 225.273438 133.457031 C 220.253906 135.898438 215.628906 138.679688 211.425781 141.765625 C 211.347656 141.816406 211.269531 141.859375 211.210938 141.925781 C 209.773438 142.988281 208.378906 144.082031 207.042969 145.214844 C 208.179688 143.347656 209.382812 141.488281 210.636719 139.644531 Z M 213.097656 143.539062 C 215.285156 141.945312 217.582031 140.433594 220 139.011719 C 216.117188 144.058594 212.796875 150.851562 210.359375 158.855469 C 209.734375 159.164062 209.136719 159.464844 208.550781 159.765625 C 209.636719 154.011719 211.148438 148.558594 213.097656 143.539062 Z M 222.136719 140.210938 C 222.097656 140.304688 222.054688 140.394531 222.015625 140.484375 C 219.953125 145.40625 218.222656 150.605469 216.800781 155.933594 C 215.597656 156.441406 214.457031 156.945312 213.359375 157.445312 C 215.683594 150.476562 218.691406 144.597656 222.136719 140.210938 Z M 216.277344 206.902344 C 214.828125 199.101562 214.429688 190.417969 215.019531 181.480469 C 215.019531 181.453125 215.027344 181.429688 215.027344 181.402344 C 215.929688 167.851562 219.082031 153.757812 224.253906 141.417969 C 225.988281 137.285156 227.984375 133.320312 230.179688 129.582031 L 231.148438 130.609375 C 219.566406 151.394531 215.328125 175.957031 218.558594 203.644531 C 217.796875 204.722656 217.039062 205.808594 216.277344 206.902344 Z M 220.6875 200.644531 C 218.128906 174.886719 222.230469 151.972656 232.902344 132.464844 L 233.875 133.492188 C 224.378906 151.890625 220.414062 175.570312 223.242188 197.144531 C 222.390625 198.308594 221.539062 199.464844 220.6875 200.644531 Z M 225.351562 194.246094 C 223.246094 174.152344 227.023438 152.5 235.648438 135.367188 L 239.476562 139.414062 C 238.078125 142.117188 236.761719 144.957031 235.554688 147.890625 C 233.023438 154.0625 231.238281 160.4375 230.191406 166.96875 C 230.191406 166.976562 230.1875 166.984375 230.1875 166.992188 C 229.832031 169.222656 229.558594 171.472656 229.375 173.734375 C 229.375 173.742188 229.375 173.75 229.375 173.757812 C 229.199219 175.949219 229.109375 178.160156 229.09375 180.382812 C 229.09375 180.394531 229.089844 180.40625 229.089844 180.417969 C 229.089844 180.421875 229.09375 180.425781 229.09375 180.425781 C 229.078125 183.21875 229.191406 186.035156 229.433594 188.871094 C 228.070312 190.648438 226.707031 192.425781 225.351562 194.246094 Z M 246.648438 147 C 244.691406 147.386719 242.75 147.796875 240.839844 148.242188 C 242.207031 147.234375 243.628906 146.273438 245.085938 145.347656 Z M 238.652344 146.863281 C 239.480469 144.957031 240.347656 143.101562 241.257812 141.300781 L 243.394531 143.558594 C 241.757812 144.613281 240.175781 145.714844 238.652344 146.863281 Z M 231.664062 185.980469 C 231.585938 184.632812 231.542969 183.292969 231.527344 181.953125 C 232.433594 182.226562 233.335938 182.484375 234.246094 182.722656 C 233.382812 183.804688 232.519531 184.882812 231.664062 185.980469 Z M 235.886719 180.648438 C 235.128906 180.460938 234.371094 180.273438 233.609375 180.058594 C 234.953125 179.441406 236.367188 178.859375 237.816406 178.296875 C 237.171875 179.082031 236.527344 179.855469 235.886719 180.648438 Z M 240.855469 174.617188 C 237.535156 175.734375 234.421875 176.992188 231.550781 178.363281 C 231.589844 177.121094 231.65625 175.882812 231.746094 174.648438 C 235.835938 173.101562 240.050781 171.726562 244.328125 170.546875 C 243.167969 171.894531 242.007812 173.242188 240.855469 174.617188 Z M 247.125 167.308594 C 241.976562 168.597656 236.898438 170.171875 231.976562 171.988281 C 232.117188 170.636719 232.285156 169.296875 232.492188 167.960938 C 237.003906 166.375 241.679688 164.980469 246.398438 163.820312 C 248.003906 163.425781 249.632812 163.0625 251.269531 162.714844 C 249.882812 164.230469 248.5 165.75 247.125 167.308594 Z M 254.054688 159.6875 C 251.289062 160.214844 248.519531 160.808594 245.820312 161.472656 C 241.460938 162.542969 237.148438 163.816406 232.953125 165.246094 C 233.195312 163.960938 233.460938 162.683594 233.761719 161.410156 C 240.117188 159.28125 246.265625 157.636719 252.035156 156.542969 C 253.941406 156.183594 255.933594 155.851562 257.976562 155.546875 C 256.664062 156.910156 255.359375 158.289062 254.054688 159.6875 Z M 260.75 152.722656 C 257.566406 153.132812 254.484375 153.621094 251.582031 154.167969 C 246.152344 155.195312 240.394531 156.71875 234.460938 158.644531 C 235.089844 156.332031 235.824219 154.039062 236.65625 151.773438 C 242.710938 150.171875 249.085938 148.855469 255.636719 147.878906 C 257.332031 147.628906 259.019531 147.394531 260.699219 147.183594 C 262.800781 146.917969 264.945312 146.6875 267.097656 146.472656 C 264.96875 148.511719 262.855469 150.59375 260.75 152.722656 Z M 237.039062 101.554688 C 233.824219 103.917969 230.640625 106.5 227.515625 109.296875 L 225.40625 107.0625 C 227.140625 105.855469 231.070312 103.453125 237.039062 101.554688 Z M 243.652344 99.902344 C 245.640625 99.53125 247.769531 99.238281 250.050781 99.0625 C 246.640625 100.980469 243.207031 103.203125 239.800781 105.703125 C 239.757812 105.726562 239.722656 105.757812 239.679688 105.789062 C 236.816406 107.894531 233.976562 110.199219 231.199219 112.65625 C 231.15625 112.6875 231.125 112.71875 231.089844 112.753906 C 231.035156 112.800781 230.976562 112.847656 230.921875 112.898438 L 229.183594 111.058594 C 233.90625 106.835938 238.761719 103.082031 243.652344 99.902344 Z M 242.152344 110.339844 C 240.289062 110.601562 238.40625 110.929688 236.507812 111.320312 C 237.96875 110.128906 239.4375 108.972656 240.917969 107.878906 C 242.511719 107.601562 244.144531 107.34375 245.796875 107.105469 C 244.558594 108.125 243.34375 109.203125 242.152344 110.339844 Z M 249.675781 104.15625 C 248.257812 104.328125 246.847656 104.515625 245.453125 104.714844 C 248.84375 102.46875 252.238281 100.5 255.574219 98.875 C 256.621094 98.882812 257.695312 98.921875 258.792969 98.980469 C 255.671875 100.363281 252.625 102.09375 249.675781 104.15625 Z M 239.257812 113.253906 C 237.949219 114.652344 236.675781 116.128906 235.433594 117.667969 L 232.625 114.699219 C 234.847656 114.128906 237.0625 113.648438 239.257812 113.253906 Z M 264.21875 99.480469 C 266.257812 99.746094 268.371094 100.105469 270.558594 100.570312 C 263.972656 103.015625 251.007812 109.253906 240.484375 123.011719 L 237.113281 119.445312 C 244.988281 109.578125 254.335938 102.6875 264.21875 99.480469 Z M 275.070312 101.644531 C 276.515625 102.035156 277.996094 102.472656 279.5 102.957031 C 272.542969 105 258.308594 111.132812 245.917969 128.753906 L 242.175781 124.792969 C 255.160156 107.621094 272.585938 102.324219 275.070312 101.644531 Z M 293.703125 108.808594 C 294.597656 112.675781 295.292969 116.675781 295.796875 120.738281 C 294.402344 120.78125 293.015625 120.847656 291.640625 120.9375 C 291.046875 115.429688 289.863281 110.484375 288.117188 106.183594 C 290.054688 107.019531 291.917969 107.894531 293.703125 108.808594 Z M 289.21875 121.117188 C 288.726562 121.15625 288.238281 121.203125 287.75 121.25 C 285.035156 115.964844 281.660156 111.027344 277.484375 106.230469 C 280.691406 105.039062 282.960938 104.578125 283.75 104.441406 C 284.128906 104.582031 284.507812 104.71875 284.882812 104.867188 C 287.082031 109.417969 288.535156 114.878906 289.21875 121.117188 Z M 267.074219 111.464844 C 268.363281 110.644531 269.609375 109.917969 270.808594 109.273438 C 272.898438 114.40625 274.011719 119.042969 274.199219 123.378906 C 273.332031 123.574219 272.472656 123.78125 271.617188 123.996094 C 269.910156 120.199219 268.398438 116.039062 267.074219 111.464844 Z M 276.609375 122.871094 C 276.433594 119.75 275.816406 116.5 274.746094 113.050781 C 276.988281 115.835938 278.984375 118.875 280.722656 122.140625 C 279.335938 122.359375 277.960938 122.601562 276.609375 122.871094 Z M 283.261719 121.761719 C 280.597656 116.589844 277.3125 111.949219 273.472656 107.925781 C 274.03125 107.664062 274.574219 107.417969 275.101562 107.1875 C 279.183594 111.785156 282.492188 116.5 285.164062 121.527344 C 284.527344 121.605469 283.890625 121.675781 283.261719 121.761719 Z M 256.542969 119.890625 C 257.292969 122.671875 258.160156 125.378906 259.164062 128.019531 C 255.859375 129.34375 252.617188 130.855469 249.496094 132.539062 L 247.617188 130.550781 C 250.515625 126.378906 253.535156 122.851562 256.542969 119.890625 Z M 260.0625 130.265625 C 260.652344 131.695312 261.285156 133.109375 261.957031 134.503906 C 259.316406 135.457031 256.75 136.5 254.300781 137.621094 L 251.21875 134.363281 C 254.082031 132.847656 257.042969 131.472656 260.0625 130.265625 Z M 263.042969 136.683594 C 264.335938 139.175781 265.765625 141.617188 267.332031 144.019531 C 265.207031 144.230469 263.089844 144.457031 261.007812 144.714844 L 256.058594 139.480469 C 258.304688 138.480469 260.640625 137.542969 263.042969 136.683594 Z M 270.007812 143.683594 C 264.660156 135.714844 260.902344 127.292969 258.550781 118.003906 C 259.363281 117.265625 260.171875 116.5625 260.976562 115.902344 C 263.707031 126.097656 267.46875 134.492188 272.429688 141.472656 C 271.625 142.210938 270.8125 142.933594 270.007812 143.683594 Z M 274.238281 139.828125 C 269.367188 132.902344 265.691406 124.523438 263.046875 114.269531 C 263.691406 113.78125 264.332031 113.320312 264.964844 112.878906 C 266.351562 117.554688 267.933594 121.824219 269.726562 125.714844 C 269.730469 125.714844 269.726562 125.71875 269.726562 125.722656 C 269.761719 125.847656 269.816406 125.960938 269.882812 126.066406 C 270.96875 128.382812 272.128906 130.574219 273.371094 132.632812 C 273.386719 132.660156 273.398438 132.683594 273.417969 132.710938 C 274.457031 134.429688 275.566406 136.042969 276.722656 137.59375 C 275.894531 138.328125 275.066406 139.082031 274.238281 139.828125 Z M 287.851562 128.257812 C 283.445312 128.871094 279.140625 129.675781 275.027344 130.644531 C 274.203125 129.234375 273.414062 127.765625 272.664062 126.230469 C 279.480469 124.554688 286.765625 123.535156 294.386719 123.207031 C 292.195312 124.851562 290.015625 126.535156 287.851562 128.257812 Z M 298.203125 120.421875 C 297.777344 116.992188 297.214844 113.605469 296.515625 110.304688 C 297.53125 110.867188 298.515625 111.4375 299.480469 112.019531 C 299.898438 114.21875 300.261719 116.460938 300.5625 118.710938 C 299.773438 119.269531 298.988281 119.851562 298.203125 120.421875 Z M 302.792969 117.175781 C 302.628906 116.035156 302.453125 114.902344 302.257812 113.769531 C 303.203125 114.390625 304.121094 115.015625 305.015625 115.648438 C 304.269531 116.152344 303.53125 116.664062 302.792969 117.175781 Z M 204.792969 105.125 C 203.730469 105.984375 202.765625 107.769531 204.21875 111.398438 C 204.410156 111.878906 204.277344 112.433594 203.882812 112.78125 C 203.589844 113.039062 203.199219 113.148438 202.808594 113.074219 C 202.585938 113.03125 202.1875 112.894531 201.953125 112.4375 C 200.023438 108.648438 197.640625 101.664062 203.394531 97.523438 C 209.089844 93.421875 217.375 102.09375 217.460938 102.1875 L 258.046875 145.109375 C 257.121094 145.234375 256.203125 145.351562 255.273438 145.492188 C 253.320312 145.78125 251.390625 146.109375 249.46875 146.457031 L 230.832031 126.746094 C 230.828125 126.746094 230.828125 126.742188 230.824219 126.742188 L 224.9375 120.511719 C 224.898438 120.46875 224.878906 120.414062 224.839844 120.375 C 224.8125 120.347656 224.78125 120.34375 224.753906 120.320312 L 221.210938 116.574219 C 221.210938 116.570312 221.207031 116.570312 221.207031 116.566406 L 211.980469 106.8125 C 210.441406 105.269531 207.199219 103.183594 204.792969 105.125 Z M 218.242188 116.957031 C 216.253906 117.761719 214.246094 118.640625 212.222656 119.582031 C 213.515625 117.972656 214.886719 116.425781 216.328125 114.9375 Z M 209.113281 123.777344 C 211.585938 122.523438 214.046875 121.375 216.484375 120.316406 C 210.277344 127.226562 204.796875 134.636719 200.265625 142.203125 C 202.273438 135.621094 205.257812 129.414062 209.113281 123.777344 Z M 194.066406 164.304688 L 193.894531 164.253906 C 193.222656 164.007812 192.882812 163.238281 193.132812 162.546875 C 194.503906 158.765625 196.167969 154.949219 198.09375 151.132812 C 198.09375 151.128906 198.097656 151.125 198.101562 151.121094 C 203.648438 140.136719 211.382812 129.214844 220.582031 119.4375 L 222.320312 121.273438 C 213.652344 130.484375 206.324219 140.753906 200.945312 151.125 C 200.945312 151.128906 200.945312 151.132812 200.941406 151.132812 C 198.816406 155.234375 196.984375 159.351562 195.507812 163.421875 C 195.277344 164.066406 194.628906 164.433594 194.066406 164.304688 Z M 197.222656 169.710938 C 197.257812 169.679688 199.230469 168 203.1875 165.558594 C 203.214844 165.546875 203.234375 165.523438 203.261719 165.511719 C 206.328125 163.625 210.566406 161.289062 216.046875 158.886719 C 215.441406 161.390625 214.898438 163.910156 214.441406 166.445312 C 205.011719 170.71875 198.390625 174.550781 197.195312 175.253906 C 196.714844 175.320312 195.691406 175.292969 195.222656 174.054688 C 194.421875 171.921875 197.140625 169.777344 197.222656 169.710938 Z M 196.164062 180.671875 C 195.53125 178.878906 198.160156 177.492188 198.1875 177.476562 C 198.199219 177.472656 198.203125 177.460938 198.214844 177.453125 C 198.226562 177.449219 198.246094 177.445312 198.257812 177.4375 C 198.324219 177.398438 204.527344 173.6875 213.964844 169.320312 C 213.742188 170.726562 213.542969 172.132812 213.363281 173.542969 C 208.410156 176.082031 203.527344 178.9375 198.867188 182.042969 C 198.679688 182.113281 197.933594 182.375 197.300781 182.117188 C 196.820312 181.921875 196.4375 181.4375 196.164062 180.671875 Z M 199.515625 188.25 C 199.109375 188.148438 198.765625 187.835938 198.457031 187.285156 C 197.617188 185.769531 200.078125 184.140625 200.117188 184.113281 C 204.285156 181.335938 208.617188 178.777344 213.015625 176.457031 C 212.863281 177.914062 212.734375 179.363281 212.632812 180.808594 C 208.671875 182.984375 204.746094 185.382812 200.972656 187.949219 C 200.964844 187.953125 200.203125 188.414062 199.515625 188.25 Z M 216.800781 214.074219 C 215.226562 212.863281 216.5 210.820312 216.640625 210.609375 C 227.136719 195.335938 237.84375 181.503906 248.855469 169.011719 C 248.859375 169.003906 248.867188 169.003906 248.871094 168.996094 C 251.121094 166.441406 253.386719 163.953125 255.664062 161.511719 C 255.675781 161.492188 255.695312 161.480469 255.707031 161.464844 C 260.835938 155.964844 266.03125 150.742188 271.304688 145.796875 C 271.347656 145.757812 271.394531 145.722656 271.429688 145.675781 C 273.96875 143.296875 276.527344 140.996094 279.101562 138.742188 C 279.105469 138.738281 279.105469 138.738281 279.109375 138.738281 C 279.113281 138.734375 279.117188 138.730469 279.121094 138.726562 C 288.195312 130.785156 297.5 123.605469 307.082031 117.164062 C 308.105469 117.9375 309.097656 118.710938 310.046875 119.496094 C 307.359375 121.351562 304.691406 123.277344 302.039062 125.253906 C 301.996094 125.273438 301.964844 125.3125 301.921875 125.339844 C 298.277344 128.0625 294.664062 130.894531 291.085938 133.84375 C 291.0625 133.859375 291.046875 133.875 291.027344 133.890625 C 270.175781 151.085938 250.378906 172.222656 231.152344 197.839844 C 231.097656 197.898438 231.039062 197.953125 230.996094 198.019531 C 230.976562 198.050781 230.964844 198.082031 230.945312 198.113281 C 227.164062 203.160156 223.402344 208.371094 219.660156 213.769531 C 219.351562 214.066406 218.113281 215.085938 216.800781 214.074219 Z M 225.695312 209.425781 C 226.625 212.84375 227.722656 216.117188 229.019531 219.195312 C 226.660156 217.710938 224.398438 216.078125 222.242188 214.316406 C 223.390625 212.667969 224.542969 211.042969 225.695312 209.425781 Z M 238.632812 228.066406 C 236.550781 227.566406 233.945312 223.863281 232.800781 221.667969 C 230.609375 217.203125 228.84375 212.21875 227.523438 206.863281 C 228.804688 205.085938 230.09375 203.335938 231.382812 201.597656 C 234.40625 215.34375 239.433594 224.753906 240.691406 226.96875 C 240.441406 227.554688 239.863281 228.359375 238.632812 228.066406 Z M 242.839844 225.832031 C 241.910156 224.183594 237.988281 216.878906 235.015625 206.128906 C 245.335938 209.175781 255.410156 210.722656 265.121094 210.722656 C 269.300781 210.722656 273.414062 210.421875 277.453125 209.855469 C 276.328125 211.875 275.15625 213.851562 273.949219 215.804688 C 266.5625 217.410156 258.574219 218.230469 250.175781 218.230469 C 249.945312 218.230469 249.679688 218.242188 249.480469 218.226562 C 248.8125 218.226562 248.269531 218.765625 248.265625 219.429688 C 248.261719 220.097656 248.804688 220.640625 249.476562 220.644531 C 249.710938 220.644531 249.941406 220.644531 250.175781 220.644531 C 257.871094 220.644531 265.242188 219.972656 272.136719 218.648438 C 269.777344 222.269531 267.285156 225.78125 264.628906 229.144531 C 264.503906 229.300781 264.402344 229.46875 264.308594 229.640625 C 259.324219 229.558594 254.328125 228.941406 249.441406 227.773438 C 247.207031 227.238281 244.996094 226.578125 242.839844 225.832031 Z M 268.46875 232.320312 C 268.15625 232.714844 267.648438 232.894531 267.183594 232.789062 C 267.003906 232.746094 266.847656 232.664062 266.699219 232.546875 C 266.4375 232.328125 266.273438 232.011719 266.238281 231.65625 C 266.203125 231.289062 266.308594 230.929688 266.535156 230.640625 C 269.816406 226.484375 272.859375 222.117188 275.695312 217.578125 C 275.722656 217.542969 275.746094 217.503906 275.769531 217.460938 C 277.480469 214.71875 279.101562 211.902344 280.640625 209.027344 C 280.679688 208.980469 280.699219 208.921875 280.726562 208.871094 C 283.214844 204.214844 285.492188 199.402344 287.527344 194.429688 C 287.550781 194.390625 287.5625 194.347656 287.578125 194.304688 C 287.960938 193.367188 288.328125 192.417969 288.695312 191.46875 L 290.621094 193.507812 C 285.007812 207.738281 277.5625 220.796875 268.46875 232.320312 Z M 279.492188 228.179688 C 289.789062 222.816406 297.554688 215.988281 303.511719 207.136719 L 305.164062 208.882812 C 303.125 211.449219 300.863281 213.878906 298.410156 216.105469 C 297.914062 216.554688 297.878906 217.320312 298.332031 217.8125 C 298.570312 218.074219 298.898438 218.207031 299.226562 218.207031 C 299.519531 218.207031 299.8125 218.105469 300.046875 217.894531 C 302.507812 215.660156 304.78125 213.226562 306.847656 210.660156 L 309.488281 213.457031 C 300.882812 220.746094 290.484375 225.828125 279.492188 228.179688 Z M 338.035156 234.910156 C 336.597656 236.261719 334.320312 236.191406 332.964844 234.757812 L 326.710938 228.144531 C 329.125 226.882812 330.894531 225.273438 332.015625 223.335938 L 338.1875 229.863281 C 338.84375 230.558594 339.191406 231.464844 339.164062 232.417969 C 339.132812 233.375 338.734375 234.257812 338.035156 234.910156 Z M 338.035156 234.910156 " fill-opacity="1" fill-rule="nonzero"/></g><g fill="#000000" fill-opacity="1"><g transform="translate(32.437181, 222.768307)"><g><path d="M 69.410156 2.75 C 87 2.75 99.097656 0 110.09375 -3.574219 L 110.09375 -21.992188 L 108.582031 -21.992188 C 108.582031 -21.992188 99.921875 1.097656 69.410156 1.097656 C 42.882812 1.097656 20.617188 -28.589844 20.617188 -68.722656 C 20.617188 -108.855469 40.957031 -138.542969 69.410156 -138.542969 C 92.363281 -138.542969 103.496094 -128.785156 103.496094 -112.429688 C 103.496094 -92.363281 64.875 -84.253906 64.875 -60.0625 C 64.875 -53.742188 69.410156 -45.632812 76.832031 -47.28125 C 74.082031 -49.617188 72.707031 -51.953125 72.707031 -56.214844 C 72.707031 -72.570312 111.605469 -82.742188 111.605469 -111.328125 C 111.605469 -123.835938 100.882812 -140.191406 69.410156 -140.191406 C 35.1875 -140.191406 8.246094 -109.953125 8.246094 -68.722656 C 8.246094 -27.488281 35.1875 2.75 69.410156 2.75 Z M 69.410156 2.75 "/></g></g></g><g fill="#000000" fill-opacity="1"><g transform="translate(38.059995, 279.033219)"><g><path d="M 29.671875 -4.796875 L 25.515625 -9 C 24.359375 -7.925781 23.191406 -7.078125 22.015625 -6.453125 C 20.835938 -5.828125 19.398438 -5.515625 17.703125 -5.515625 C 16.429688 -5.515625 15.265625 -5.757812 14.203125 -6.25 C 13.140625 -6.75 12.234375 -7.421875 11.484375 -8.265625 C 10.734375 -9.117188 10.144531 -10.113281 9.71875 -11.25 C 9.289062 -12.382812 9.078125 -13.585938 9.078125 -14.859375 L 9.078125 -14.9375 C 9.078125 -16.21875 9.289062 -17.414062 9.71875 -18.53125 C 10.144531 -19.644531 10.738281 -20.625 11.5 -21.46875 C 12.269531 -22.320312 13.179688 -22.988281 14.234375 -23.46875 C 15.296875 -23.957031 16.453125 -24.203125 17.703125 -24.203125 C 19.203125 -24.203125 20.550781 -23.90625 21.75 -23.3125 C 22.957031 -22.71875 24.140625 -21.894531 25.296875 -20.84375 L 29.46875 -25.640625 C 28.78125 -26.316406 28.039062 -26.9375 27.25 -27.5 C 26.457031 -28.070312 25.59375 -28.554688 24.65625 -28.953125 C 23.726562 -29.347656 22.691406 -29.660156 21.546875 -29.890625 C 20.398438 -30.117188 19.132812 -30.234375 17.75 -30.234375 C 15.457031 -30.234375 13.363281 -29.828125 11.46875 -29.015625 C 9.570312 -28.210938 7.941406 -27.109375 6.578125 -25.703125 C 5.222656 -24.304688 4.160156 -22.679688 3.390625 -20.828125 C 2.628906 -18.972656 2.25 -16.984375 2.25 -14.859375 L 2.25 -14.78125 C 2.25 -12.65625 2.628906 -10.65625 3.390625 -8.78125 C 4.160156 -6.914062 5.222656 -5.296875 6.578125 -3.921875 C 7.941406 -2.554688 9.554688 -1.472656 11.421875 -0.671875 C 13.285156 0.117188 15.304688 0.515625 17.484375 0.515625 C 18.929688 0.515625 20.234375 0.390625 21.390625 0.140625 C 22.554688 -0.0976562 23.625 -0.445312 24.59375 -0.90625 C 25.570312 -1.375 26.472656 -1.929688 27.296875 -2.578125 C 28.117188 -3.234375 28.910156 -3.972656 29.671875 -4.796875 Z M 29.671875 -4.796875 "/></g></g></g><g fill="#000000" fill-opacity="1"><g transform="translate(82.92644, 279.033219)"><g><path d="M 29.25 0 L 21.984375 -10.609375 C 23.878906 -11.316406 25.414062 -12.425781 26.59375 -13.9375 C 27.769531 -15.457031 28.359375 -17.421875 28.359375 -19.828125 L 28.359375 -19.90625 C 28.359375 -22.988281 27.375 -25.394531 25.40625 -27.125 C 23.4375 -28.851562 20.6875 -29.71875 17.15625 -29.71875 L 3.5625 -29.71875 L 3.5625 0 L 10.109375 0 L 10.109375 -9.515625 L 15.234375 -9.515625 L 21.609375 0 Z M 21.734375 -19.484375 C 21.734375 -18.210938 21.300781 -17.191406 20.4375 -16.421875 C 19.570312 -15.660156 18.332031 -15.28125 16.71875 -15.28125 L 10.109375 -15.28125 L 10.109375 -23.8125 L 16.59375 -23.8125 C 18.207031 -23.8125 19.46875 -23.457031 20.375 -22.75 C 21.28125 -22.039062 21.734375 -20.984375 21.734375 -19.578125 Z M 21.734375 -19.484375 "/></g></g></g><g fill="#000000" fill-opacity="1"><g transform="translate(127.156216, 279.033219)"><g><path d="M 33.828125 -14.859375 L 33.828125 -14.9375 C 33.828125 -17.0625 33.4375 -19.050781 32.65625 -20.90625 C 31.882812 -22.757812 30.796875 -24.375 29.390625 -25.75 C 27.992188 -27.125 26.332031 -28.210938 24.40625 -29.015625 C 22.488281 -29.828125 20.378906 -30.234375 18.078125 -30.234375 C 15.785156 -30.234375 13.671875 -29.828125 11.734375 -29.015625 C 9.796875 -28.210938 8.125 -27.109375 6.71875 -25.703125 C 5.320312 -24.304688 4.226562 -22.679688 3.4375 -20.828125 C 2.644531 -18.972656 2.25 -16.984375 2.25 -14.859375 L 2.25 -14.78125 C 2.25 -12.65625 2.632812 -10.664062 3.40625 -8.8125 C 4.1875 -6.957031 5.273438 -5.34375 6.671875 -3.96875 C 8.078125 -2.59375 9.742188 -1.5 11.671875 -0.6875 C 13.597656 0.113281 15.707031 0.515625 18 0.515625 C 20.289062 0.515625 22.40625 0.113281 24.34375 -0.6875 C 26.28125 -1.5 27.945312 -2.601562 29.34375 -4 C 30.75 -5.40625 31.847656 -7.035156 32.640625 -8.890625 C 33.429688 -10.742188 33.828125 -12.734375 33.828125 -14.859375 Z M 27 -14.78125 C 27 -13.5 26.78125 -12.300781 26.34375 -11.1875 C 25.90625 -10.070312 25.296875 -9.085938 24.515625 -8.234375 C 23.734375 -7.390625 22.789062 -6.722656 21.6875 -6.234375 C 20.582031 -5.753906 19.378906 -5.515625 18.078125 -5.515625 C 16.753906 -5.515625 15.546875 -5.757812 14.453125 -6.25 C 13.367188 -6.75 12.421875 -7.421875 11.609375 -8.265625 C 10.804688 -9.117188 10.179688 -10.113281 9.734375 -11.25 C 9.296875 -12.382812 9.078125 -13.585938 9.078125 -14.859375 L 9.078125 -14.9375 C 9.078125 -16.21875 9.296875 -17.414062 9.734375 -18.53125 C 10.179688 -19.644531 10.789062 -20.625 11.5625 -21.46875 C 12.34375 -22.320312 13.273438 -22.988281 14.359375 -23.46875 C 15.453125 -23.957031 16.664062 -24.203125 18 -24.203125 C 19.300781 -24.203125 20.503906 -23.953125 21.609375 -23.453125 C 22.710938 -22.960938 23.664062 -22.289062 24.46875 -21.4375 C 25.28125 -20.59375 25.90625 -19.601562 26.34375 -18.46875 C 26.78125 -17.332031 27 -16.128906 27 -14.859375 Z M 27 -14.78125 "/></g></g></g><g fill="#000000" fill-opacity="1"><g transform="translate(176.776536, 279.033219)"><g><path d="M 29.671875 -4.796875 L 25.515625 -9 C 24.359375 -7.925781 23.191406 -7.078125 22.015625 -6.453125 C 20.835938 -5.828125 19.398438 -5.515625 17.703125 -5.515625 C 16.429688 -5.515625 15.265625 -5.757812 14.203125 -6.25 C 13.140625 -6.75 12.234375 -7.421875 11.484375 -8.265625 C 10.734375 -9.117188 10.144531 -10.113281 9.71875 -11.25 C 9.289062 -12.382812 9.078125 -13.585938 9.078125 -14.859375 L 9.078125 -14.9375 C 9.078125 -16.21875 9.289062 -17.414062 9.71875 -18.53125 C 10.144531 -19.644531 10.738281 -20.625 11.5 -21.46875 C 12.269531 -22.320312 13.179688 -22.988281 14.234375 -23.46875 C 15.296875 -23.957031 16.453125 -24.203125 17.703125 -24.203125 C 19.203125 -24.203125 20.550781 -23.90625 21.75 -23.3125 C 22.957031 -22.71875 24.140625 -21.894531 25.296875 -20.84375 L 29.46875 -25.640625 C 28.78125 -26.316406 28.039062 -26.9375 27.25 -27.5 C 26.457031 -28.070312 25.59375 -28.554688 24.65625 -28.953125 C 23.726562 -29.347656 22.691406 -29.660156 21.546875 -29.890625 C 20.398438 -30.117188 19.132812 -30.234375 17.75 -30.234375 C 15.457031 -30.234375 13.363281 -29.828125 11.46875 -29.015625 C 9.570312 -28.210938 7.941406 -27.109375 6.578125 -25.703125 C 5.222656 -24.304688 4.160156 -22.679688 3.390625 -20.828125 C 2.628906 -18.972656 2.25 -16.984375 2.25 -14.859375 L 2.25 -14.78125 C 2.25 -12.65625 2.628906 -10.65625 3.390625 -8.78125 C 4.160156 -6.914062 5.222656 -5.296875 6.578125 -3.921875 C 7.941406 -2.554688 9.554688 -1.472656 11.421875 -0.671875 C 13.285156 0.117188 15.304688 0.515625 17.484375 0.515625 C 18.929688 0.515625 20.234375 0.390625 21.390625 0.140625 C 22.554688 -0.0976562 23.625 -0.445312 24.59375 -0.90625 C 25.570312 -1.375 26.472656 -1.929688 27.296875 -2.578125 C 28.117188 -3.234375 28.910156 -3.972656 29.671875 -4.796875 Z M 29.671875 -4.796875 "/></g></g></g><g fill="#000000" fill-opacity="1"><g transform="translate(221.64298, 279.033219)"><g><path d="M 28.703125 0 L 28.703125 -29.71875 L 22.15625 -29.71875 L 22.15625 -17.953125 L 10.109375 -17.953125 L 10.109375 -29.71875 L 3.5625 -29.71875 L 3.5625 0 L 10.109375 0 L 10.109375 -11.921875 L 22.15625 -11.921875 L 22.15625 0 Z M 28.703125 0 "/></g></g></g><g fill="#000000" fill-opacity="1"><g transform="translate(267.443228, 279.033219)"><g><path d="M 26.1875 0 L 26.1875 -5.8125 L 10.0625 -5.8125 L 10.0625 -12.0625 L 24.078125 -12.0625 L 24.078125 -17.875 L 10.0625 -17.875 L 10.0625 -23.90625 L 25.984375 -23.90625 L 25.984375 -29.71875 L 3.5625 -29.71875 L 3.5625 0 Z M 26.1875 0 "/></g></g></g><g fill="#000000" fill-opacity="1"><g transform="translate(309.423404, 279.033219)"><g><path d="M 26.0625 -23.6875 L 26.0625 -29.71875 L 1.4375 -29.71875 L 1.4375 -23.6875 L 10.484375 -23.6875 L 10.484375 0 L 17.03125 0 L 17.03125 -23.6875 Z M 26.0625 -23.6875 "/></g></g></g></svg>